<?xml version="1.0" encoding="utf-8"?><svg viewBox="0 0 30 30" xmlns="http://www.w3.org/2000/svg" xmlns:xlink="http://www.w3.org/1999/xlink"><style>:root>svg{display:none}:root>svg:target{display:block}</style><svg viewBox="0 0 30 30" id="Frame_(3)" xmlns="http://www.w3.org/2000/svg"><g clip-path="url(#aclip0)"><path clip-rule="evenodd" d="M15 .198c8.284 0 15 6.712 15 14.992 0 7.472-5.47 13.667-12.624 14.805V19.561h3.494l.665-4.325h-.038l.007-.046h-4.128v-2.76c0-1.184.58-2.337 2.444-2.337h1.89V6.411l-.03-.005v-.059s-1.717-.293-3.358-.293c-3.426 0-5.666 2.076-5.666 5.833v3.303H8.848v4.334h.034v.037h3.774V30C5.486 28.875 0 22.672 0 15.19 0 6.91 6.716.197 15 .197z"/></g><defs><clipPath id="aclip0"><path d="M0 0h30v30H0z"/></clipPath></defs></svg><svg viewBox="0 0 24 24" id="user" xmlns="http://www.w3.org/2000/svg"><path d="M7 7a5 5 0 1110 0A5 5 0 017 7zm5 3a3 3 0 100-6 3 3 0 000 6zM6.343 15.343A8 8 0 004 21h2a6 6 0 1112 0h2a8 8 0 00-13.657-5.657z"/></svg></svg>