<svg width="310" height="313" fill="none" xmlns="http://www.w3.org/2000/svg"><path d="M35.976 181.246H6.929c-.936 0-1.694.759-1.694 1.695v63.595c0 .936.758 1.695 1.694 1.695h29.047c.935 0 1.694-.759 1.694-1.695v-63.595c0-.936-.759-1.695-1.694-1.695z" fill="url(#paint0_linear)"/><path d="M89.48 165.886H60.431c-.935 0-1.694.759-1.694 1.695v79.478c0 .936.759 1.695 1.694 1.695H89.48c.936 0 1.694-.759 1.694-1.695v-79.478c0-.936-.758-1.695-1.694-1.695z" fill="url(#paint1_linear)"/><path d="M142.979 141.495h-29.047c-.935 0-1.694.759-1.694 1.695v102.957c0 .936.759 1.695 1.694 1.695h29.047c.936 0 1.694-.759 1.694-1.695V143.19c0-.936-.758-1.695-1.694-1.695z" fill="url(#paint2_linear)"/><path d="M196.738 124.443h-29.047c-.936 0-1.694.759-1.694 1.695V247.05c0 .936.758 1.695 1.694 1.695h29.047c.935 0 1.694-.759 1.694-1.695V126.138c0-.936-.759-1.695-1.694-1.695z" fill="url(#paint3_linear)"/><path d="M249.94 101.563h-29.047c-.935 0-1.694.759-1.694 1.695v143.701c0 .936.759 1.695 1.694 1.695h29.047c.936 0 1.694-.759 1.694-1.695V103.258c0-.936-.758-1.695-1.694-1.695z" fill="url(#paint4_linear)"/><path d="M303.647 77.388H274.6c-.935 0-1.694.76-1.694 1.695v167.871c0 .936.759 1.695 1.694 1.695h29.047c.936 0 1.694-.759 1.694-1.695V79.084c0-.937-.758-1.696-1.694-1.696z" fill="url(#paint5_linear)"/><path d="M6.58 276.329v-.789c.772-.773 1.46-1.47 2.06-2.093a21.58 21.58 0 001.513-1.723c.407-.537.718-1.025.933-1.466.215-.451.322-.885.322-1.304 0-.59-.161-1.073-.483-1.449-.322-.376-.81-.564-1.464-.564-.43 0-.826.124-1.191.37a4.803 4.803 0 00-.998.87l-.756-.757a5.765 5.765 0 011.368-1.127c.482-.29 1.062-.435 1.738-.435.954 0 1.705.28 2.253.837.547.548.82 1.279.82 2.191 0 .483-.107.972-.322 1.465a7.968 7.968 0 01-.869 1.514 17.67 17.67 0 01-1.32 1.626 71.845 71.845 0 01-1.673 1.788l.87-.065c.3-.021.584-.032.852-.032h2.977v1.143H6.58zm11.04.194c-1.04 0-1.85-.461-2.43-1.385-.579-.923-.868-2.249-.868-3.978 0-1.728.29-3.043.869-3.945.58-.902 1.39-1.353 2.43-1.353 1.03 0 1.834.451 2.414 1.353.58.902.869 2.217.869 3.945 0 1.729-.29 3.055-.87 3.978-.579.924-1.383 1.385-2.413 1.385zm0-1.063c.301 0 .57-.081.805-.242.247-.171.456-.429.628-.773.182-.354.322-.799.418-1.336a11.38 11.38 0 00.145-1.949c0-.751-.048-1.395-.145-1.932-.096-.537-.236-.972-.418-1.305-.172-.343-.38-.596-.628-.757a1.394 1.394 0 00-.804-.241c-.3 0-.574.08-.82.241-.248.161-.462.414-.645.757-.171.333-.305.768-.402 1.305a11.147 11.147 0 00-.145 1.932c0 1.504.183 2.599.547 3.285.376.677.864 1.015 1.465 1.015zm4.942.869v-1.095h2.35v-7.568h-1.867v-.854c.472-.085.88-.187 1.223-.306a5.23 5.23 0 00.95-.451h1.014v9.179h2.124v1.095h-5.794zm10.72.194a3.22 3.22 0 01-1.4-.306 3.157 3.157 0 01-1.127-.918c-.311-.419-.558-.934-.74-1.546-.183-.622-.274-1.347-.274-2.174 0-1.031.107-1.905.322-2.625.215-.73.504-1.321.869-1.771.365-.462.778-.795 1.24-.999a3.547 3.547 0 011.48-.322c.558 0 1.035.108 1.432.322.408.204.756.462 1.046.773l-.74.821a2.305 2.305 0 00-.773-.579 1.969 1.969 0 00-.917-.226c-.354 0-.692.076-1.014.226-.322.151-.606.397-.853.74-.247.345-.445.795-.595 1.353-.15.548-.23 1.23-.242 2.045a3.617 3.617 0 011.127-.934c.429-.235.853-.354 1.271-.354.89 0 1.599.264 2.124.789.537.526.805 1.321.805 2.383 0 .495-.08.945-.241 1.353a3.2 3.2 0 01-.66 1.031c-.28.29-.6.515-.966.676a2.877 2.877 0 01-1.175.242zm0-1.047c.257 0 .493-.053.708-.161.214-.107.402-.258.563-.451a2.21 2.21 0 00.37-.709c.096-.278.145-.589.145-.934 0-.676-.156-1.207-.467-1.594-.311-.386-.788-.58-1.432-.58-.333 0-.692.108-1.078.323-.387.204-.74.547-1.063 1.03.086 1.01.317 1.777.693 2.303.386.515.906.773 1.56.773zM16.91 169.304c0-2.333-1.11-3.662-2.493-4.394 1.274-.678 2.223-1.871 2.223-3.96 0-3.255-2.467-5.533-5.882-5.533-3.252 0-5.827 2.062-5.908 5.506h3.523c.081-1.465 1.057-2.332 2.385-2.332 1.274 0 2.358.84 2.358 2.468 0 1.356-.732 2.413-2.439 2.413h-.515v3.065h.515c1.735 0 2.71 1.058 2.71 2.658 0 1.736-1.084 2.685-2.602 2.685-1.382 0-2.574-.786-2.629-2.522H4.633c.054 4.041 3.008 5.696 6.152 5.696 3.307 0 6.126-1.899 6.126-5.75zm6.478 7.079v-5.344h-3.876v8.327l3.876-2.983zm14.698-8.001c0-1.818-.217-3.635-1.734-5.154-.786-.786-2.006-1.301-3.605-1.301-1.301 0-2.386.488-2.9.976v-4.15h7.806v-3.173H26.648v10.903h3.226c.244-.759.894-1.573 2.33-1.573 1.708 0 2.359 1.248 2.359 3.472 0 1.22-.136 2.251-.76 2.874-.433.434-1.002.624-1.68.624-1.463 0-2.168-.868-2.358-2.386h-3.523c.108 1.41.38 2.82 1.572 4.014.84.84 2.304 1.546 4.31 1.546 2.005 0 3.387-.706 4.255-1.574 1.409-1.41 1.707-2.929 1.707-5.098zm32.786-12.332v-3.336h-1.761v-3.607h-3.388v3.607h-4.039l6.614-13.235h-3.85l-6.613 13.235v3.336h7.888v2.74h3.388v-2.74h1.761zm6.017 4.231v-5.343h-3.876v8.327l3.876-2.984zm14.725-7.078c0-2.333-1.11-3.662-2.493-4.394 1.274-.678 2.222-1.872 2.222-3.96 0-3.255-2.466-5.533-5.881-5.533-3.253 0-5.828 2.061-5.91 5.506h3.524c.082-1.465 1.057-2.333 2.386-2.333 1.274 0 2.358.841 2.358 2.469 0 1.356-.732 2.413-2.44 2.413h-.514v3.065h.514c1.735 0 2.71 1.058 2.71 2.658 0 1.736-1.083 2.685-2.601 2.685-1.383 0-2.575-.786-2.63-2.522h-3.523c.054 4.041 3.008 5.695 6.153 5.695 3.307 0 6.125-1.898 6.125-5.749zm32.272-25.783c0-1.817-.216-3.635-1.734-5.153-.786-.787-2.006-1.302-3.605-1.302-1.301 0-2.385.488-2.9.976v-4.15h7.806v-3.173h-11.004v10.903h3.225c.244-.759.894-1.573 2.331-1.573 1.707 0 2.358 1.248 2.358 3.472 0 1.22-.136 2.251-.759 2.875-.434.434-1.003.624-1.68.624-1.464 0-2.169-.868-2.359-2.387h-3.523c.108 1.41.379 2.82 1.572 4.014.84.841 2.304 1.546 4.31 1.546 2.005 0 3.388-.705 4.255-1.573 1.409-1.411 1.707-2.929 1.707-5.099zm6.504 8.001v-5.343h-3.875v8.326l3.875-2.983zm14.645-7.35c0-3.58-2.466-5.723-5.068-5.723-.461 0-.976.054-1.437.244l4.011-7.974h-3.848l-4.066 8.354c-.867 1.763-1.626 3.39-1.626 5.153 0 3.824 2.602 5.967 6.017 5.967 3.415 0 6.017-2.224 6.017-6.021zm-3.524.027c0 1.79-1.057 2.821-2.493 2.821-1.437 0-2.494-1.031-2.494-2.821 0-1.79 1.057-2.821 2.494-2.821 1.491 0 2.493 1.112 2.493 2.821zm36.078-15.907c0-3.58-2.466-5.723-5.068-5.723-.461 0-.976.054-1.437.244l4.012-7.974h-3.849l-4.066 8.354c-.867 1.763-1.626 3.39-1.626 5.153 0 3.824 2.602 5.967 6.017 5.967 3.415 0 6.017-2.224 6.017-6.021zm-3.523.027c0 1.79-1.057 2.821-2.494 2.821-1.436 0-2.493-1.031-2.493-2.821 0-1.79 1.057-2.821 2.493-2.821 1.491 0 2.494 1.112 2.494 2.821zm10.082 7.323v-5.343h-3.876v8.326l3.876-2.983zm14.698-8.001c0-1.817-.217-3.635-1.734-5.153-.786-.787-2.006-1.302-3.605-1.302-1.301 0-2.385.488-2.9.976v-4.149h7.806v-3.174h-11.005v10.903h3.226c.244-.759.894-1.573 2.331-1.573 1.707 0 2.358 1.248 2.358 3.472 0 1.22-.136 2.251-.759 2.875-.434.434-1.003.624-1.681.624-1.463 0-2.168-.868-2.358-2.387h-3.523c.108 1.41.379 2.821 1.572 4.014.84.841 2.304 1.546 4.309 1.546 2.006 0 3.388-.705 4.256-1.573 1.409-1.411 1.707-2.929 1.707-5.099zm32.245-32.995v-3.173h-12.279v6.21h3.361v-3.037h5.096l-6.261 16.138h3.822l6.261-16.138zm6.26 17.63V90.83h-3.876v8.327l3.876-2.984zm14.941-17.63v-3.173h-12.278v6.21h3.361v-3.037h5.096l-6.261 16.138h3.822l6.26-16.138zm32.289-22.229c0-3.825-2.602-5.967-6.017-5.967-3.415 0-6.017 2.224-6.017 6.02 0 3.58 2.493 5.723 5.095 5.723.461 0 .976-.054 1.437-.244l-4.011 7.974h3.821l4.093-8.353c.867-1.763 1.599-3.39 1.599-5.154zm-3.524.027c0 1.79-1.057 2.82-2.493 2.82-1.491 0-2.494-1.112-2.494-2.82 0-1.79 1.057-2.821 2.494-2.821 1.436 0 2.493 1.03 2.493 2.82zm10.001 14.97v-5.342h-3.876v8.326l3.876-2.983zm14.535-7.078V56.1c0-3.69-2.71-5.75-5.854-5.75s-5.882 2.06-5.882 5.75v8.136c0 3.689 2.738 5.75 5.882 5.75 3.144 0 5.854-2.061 5.854-5.75zm-3.523-.027c0 1.627-.922 2.604-2.331 2.604-1.41 0-2.358-.977-2.358-2.604v-8.055c0-1.628.948-2.631 2.358-2.631 1.409 0 2.331 1.003 2.331 2.63v8.056zM60.084 276.329v-.789c.772-.773 1.459-1.47 2.06-2.093a21.58 21.58 0 001.513-1.723c.407-.537.718-1.025.933-1.466.215-.451.322-.885.322-1.304 0-.59-.161-1.073-.483-1.449-.322-.376-.81-.564-1.465-.564-.429 0-.825.124-1.19.37a4.802 4.802 0 00-.998.87l-.757-.757c.43-.472.886-.847 1.368-1.127.483-.29 1.063-.435 1.739-.435.954 0 1.705.28 2.253.837.547.548.82 1.279.82 2.191 0 .483-.107.972-.322 1.465a7.968 7.968 0 01-.869 1.514 17.537 17.537 0 01-1.32 1.626 71.895 71.895 0 01-1.673 1.788l.87-.065c.3-.021.584-.032.852-.032h2.977v1.143h-6.63zm11.04.194c-1.04 0-1.85-.461-2.43-1.385-.579-.923-.868-2.249-.868-3.978 0-1.728.29-3.043.869-3.945.579-.902 1.39-1.353 2.43-1.353 1.03 0 1.834.451 2.414 1.353.579.902.869 2.217.869 3.945 0 1.729-.29 3.055-.87 3.978-.579.924-1.383 1.385-2.413 1.385zm0-1.063c.301 0 .57-.081.805-.242.247-.171.456-.429.628-.773.182-.354.322-.799.418-1.336a11.38 11.38 0 00.145-1.949c0-.751-.048-1.395-.145-1.932-.096-.537-.236-.972-.418-1.305-.172-.343-.38-.596-.628-.757a1.394 1.394 0 00-.804-.241c-.3 0-.574.08-.821.241-.247.161-.461.414-.644.757-.171.333-.305.768-.402 1.305-.097.537-.145 1.181-.145 1.932 0 1.504.183 2.599.547 3.285.376.677.864 1.015 1.465 1.015zm4.942.869v-1.095h2.35v-7.568h-1.867v-.854c.472-.085.88-.187 1.223-.306a5.23 5.23 0 00.95-.451h1.014v9.179h2.124v1.095h-5.794zm9.255 0a23.58 23.58 0 01.257-2.657c.129-.805.306-1.567.531-2.286.237-.73.531-1.434.885-2.11.365-.676.8-1.369 1.304-2.077h-5.117v-1.144h6.614v.822a15.82 15.82 0 00-1.497 2.222 12.245 12.245 0 00-.901 2.174 14.1 14.1 0 00-.5 2.335 36.87 36.87 0 00-.208 2.721H85.32zm28.263 0v-.789c.773-.773 1.46-1.47 2.06-2.093a20.995 20.995 0 001.513-1.723c.408-.537.719-1.025.933-1.466.216-.451.322-.885.322-1.304 0-.59-.161-1.073-.483-1.449-.321-.376-.809-.564-1.464-.564a2.09 2.09 0 00-1.191.37 4.839 4.839 0 00-.998.87l-.756-.757a5.765 5.765 0 011.368-1.127c.483-.29 1.062-.435 1.738-.435.955 0 1.706.28 2.253.837.547.548.821 1.279.821 2.191 0 .483-.107.972-.322 1.465a7.899 7.899 0 01-.869 1.514 17.547 17.547 0 01-1.32 1.626 72.383 72.383 0 01-1.673 1.788l.869-.065c.3-.021.585-.032.852-.032h2.978v1.143h-6.631zm11.042.194c-1.041 0-1.851-.461-2.43-1.385-.58-.923-.869-2.249-.869-3.978 0-1.728.289-3.043.869-3.945.579-.902 1.389-1.353 2.43-1.353 1.03 0 1.834.451 2.414 1.353.579.902.869 2.217.869 3.945 0 1.729-.29 3.055-.869 3.978-.58.924-1.384 1.385-2.414 1.385zm0-1.063c.3 0 .568-.081.804-.242.247-.171.456-.429.628-.773.182-.354.322-.799.419-1.336.096-.548.144-1.197.144-1.949 0-.751-.048-1.395-.144-1.932-.097-.537-.237-.972-.419-1.305-.172-.343-.381-.596-.628-.757a1.393 1.393 0 00-.804-.241c-.301 0-.574.08-.821.241-.247.161-.462.414-.644.757-.172.333-.305.768-.402 1.305-.097.537-.145 1.181-.145 1.932 0 1.504.182 2.599.547 3.285.376.677.863 1.015 1.465 1.015zm4.941.869v-1.095h2.35v-7.568h-1.867v-.854c.472-.085.88-.187 1.223-.306.354-.129.671-.279.95-.451h1.013v9.179h2.125v1.095h-5.794zm10.429.194c-.483 0-.933-.07-1.352-.21a3.376 3.376 0 01-1.062-.579 2.995 2.995 0 01-.692-.902 2.492 2.492 0 01-.257-1.127c0-.333.054-.639.161-.918a3.37 3.37 0 01.434-.773c.183-.236.386-.44.612-.612.236-.183.477-.338.724-.467v-.065a4.729 4.729 0 01-.998-.966c-.289-.386-.434-.853-.434-1.401a2.458 2.458 0 01.837-1.9c.257-.236.563-.419.917-.548a3.36 3.36 0 011.159-.193c.45 0 .852.07 1.206.209.355.129.655.317.902.564.257.236.45.526.579.87.14.333.209.698.209 1.095 0 .268-.048.526-.145.773a3.106 3.106 0 01-.338.692 2.921 2.921 0 01-.45.58 3.511 3.511 0 01-.483.435v.064c.225.129.446.28.66.451.215.161.402.349.563.564.172.204.306.44.402.708.108.269.161.575.161.918 0 .387-.08.747-.241 1.079a2.646 2.646 0 01-.676.87c-.29.247-.638.44-1.046.579-.407.14-.858.21-1.352.21zm.724-5.798a3.62 3.62 0 00.789-.982 2.17 2.17 0 00.29-1.079c0-.515-.155-.944-.467-1.288-.311-.354-.751-.532-1.32-.532-.482 0-.879.151-1.191.451-.31.301-.466.704-.466 1.208 0 .312.064.58.193.805.129.216.301.409.515.58.225.172.478.328.756.467.29.129.591.253.901.37zm-.692 4.815c.602 0 1.085-.166 1.449-.499.376-.332.563-.767.563-1.304 0-.332-.075-.617-.225-.854a2.086 2.086 0 00-.612-.612 4.466 4.466 0 00-.901-.483c-.332-.15-.681-.3-1.046-.451a4.33 4.33 0 00-1.03.983 2.068 2.068 0 00-.402 1.256c0 .29.054.553.161.789.118.236.273.446.466.628.204.172.441.306.708.402.269.097.559.145.869.145zm27.314.789v-.789c.772-.773 1.459-1.47 2.06-2.093a21.157 21.157 0 001.512-1.723 8.954 8.954 0 00.934-1.466c.215-.451.322-.885.322-1.304 0-.59-.161-1.073-.483-1.449-.322-.376-.81-.564-1.465-.564-.428 0-.825.124-1.191.37a4.808 4.808 0 00-.997.87l-.757-.757c.43-.472.885-.847 1.368-1.127.483-.29 1.062-.435 1.738-.435.956 0 1.706.28 2.253.837.547.548.821 1.279.821 2.191 0 .483-.107.972-.322 1.465a7.899 7.899 0 01-.869 1.514 17.69 17.69 0 01-1.319 1.626 72.523 72.523 0 01-1.674 1.788l.869-.065c.301-.021.585-.032.853-.032h2.977v1.143h-6.63zm11.041.194c-1.041 0-1.851-.461-2.43-1.385-.579-.923-.869-2.249-.869-3.978 0-1.728.29-3.043.869-3.945.579-.902 1.389-1.353 2.43-1.353 1.03 0 1.835.451 2.414 1.353.579.902.869 2.217.869 3.945 0 1.729-.29 3.055-.869 3.978-.579.924-1.384 1.385-2.414 1.385zm0-1.063c.3 0 .568-.081.805-.242.246-.171.455-.429.627-.773.183-.354.322-.799.419-1.336a11.44 11.44 0 00.145-1.949c0-.751-.049-1.395-.145-1.932-.097-.537-.236-.972-.419-1.305-.172-.343-.381-.596-.627-.757a1.398 1.398 0 00-.805-.241c-.301 0-.574.08-.821.241-.247.161-.461.414-.643.757-.172.333-.306.768-.403 1.305-.096.537-.144 1.181-.144 1.932 0 1.504.182 2.599.547 3.285.375.677.863 1.015 1.464 1.015zm4.941.869v-1.095h2.35v-7.568h-1.867v-.854c.472-.085.88-.187 1.223-.306.354-.129.671-.279.95-.451h1.014v9.179h2.124v1.095h-5.794zm10.188-4.992c.344 0 .703-.106 1.078-.322.387-.214.747-.563 1.079-1.047-.086-1.008-.322-1.771-.708-2.286-.387-.516-.907-.773-1.562-.773-.246 0-.482.054-.708.161a1.663 1.663 0 00-.563.467c-.161.193-.29.43-.386.708-.086.28-.129.586-.129.918 0 .677.156 1.208.467 1.595.312.386.788.579 1.432.579zm-.483 5.186c-.547 0-1.03-.102-1.448-.306a3.429 3.429 0 01-1.03-.773l.74-.838c.215.248.467.446.757.596.3.151.611.226.933.226.365 0 .708-.075 1.03-.226.322-.15.606-.396.853-.741.247-.354.445-.81.595-1.368.151-.558.232-1.251.242-2.078a3.666 3.666 0 01-1.127.966 2.637 2.637 0 01-1.287.355c-.89 0-1.598-.263-2.124-.789s-.789-1.321-.789-2.384c0-.493.08-.939.241-1.336.161-.408.377-.757.644-1.047.28-.29.602-.515.966-.676a2.952 2.952 0 011.174-.242c.505 0 .972.103 1.401.306.44.204.815.515 1.126.934.322.409.569.924.74 1.546.183.612.274 1.331.274 2.158 0 1.031-.107 1.911-.322 2.641-.214.719-.504 1.31-.869 1.771a3.45 3.45 0 01-1.255.999c-.461.204-.95.306-1.465.306zm27.516-.194v-.789c.772-.773 1.458-1.47 2.06-2.093a21.55 21.55 0 001.512-1.723c.408-.537.719-1.025.934-1.466.214-.451.322-.885.322-1.304 0-.59-.161-1.073-.483-1.449-.322-.376-.811-.564-1.465-.564-.429 0-.826.124-1.19.37a4.788 4.788 0 00-.998.87l-.757-.757a5.785 5.785 0 011.368-1.127c.483-.29 1.062-.435 1.738-.435.955 0 1.706.28 2.253.837.548.548.821 1.279.821 2.191 0 .483-.107.972-.322 1.465a8.006 8.006 0 01-.869 1.514 17.557 17.557 0 01-1.319 1.626 72.523 72.523 0 01-1.674 1.788l.869-.065c.3-.021.584-.032.853-.032h2.977v1.143h-6.63zm11.04.194c-1.041 0-1.85-.461-2.43-1.385-.579-.923-.869-2.249-.869-3.978 0-1.728.29-3.043.869-3.945.58-.902 1.389-1.353 2.43-1.353 1.03 0 1.835.451 2.414 1.353.58.902.869 2.217.869 3.945 0 1.729-.289 3.055-.869 3.978-.579.924-1.384 1.385-2.414 1.385zm0-1.063c.301 0 .569-.081.805-.242.247-.171.456-.429.628-.773.182-.354.322-.799.418-1.336.097-.548.145-1.197.145-1.949 0-.751-.048-1.395-.145-1.932-.096-.537-.236-.972-.418-1.305-.172-.343-.381-.596-.628-.757a1.394 1.394 0 00-.805-.241c-.3 0-.574.08-.82.241-.247.161-.462.414-.644.757-.172.333-.306.768-.402 1.305-.097.537-.145 1.181-.145 1.932 0 1.504.182 2.599.547 3.285.375.677.864 1.015 1.464 1.015zm4.314.869v-.789c.773-.773 1.46-1.47 2.06-2.093a21.382 21.382 0 001.513-1.723c.408-.537.719-1.025.933-1.466.215-.451.322-.885.322-1.304 0-.59-.161-1.073-.483-1.449-.322-.376-.81-.564-1.464-.564a2.09 2.09 0 00-1.191.37 4.839 4.839 0 00-.998.87l-.756-.757a5.765 5.765 0 011.368-1.127c.482-.29 1.062-.435 1.738-.435.955 0 1.706.28 2.253.837.547.548.82 1.279.82 2.191 0 .483-.106.972-.321 1.465a7.952 7.952 0 01-.869 1.514 17.579 17.579 0 01-1.32 1.626 70.649 70.649 0 01-1.674 1.788l.869-.065c.301-.021.586-.032.853-.032h2.977v1.143h-6.63zm11.042.194c-1.041 0-1.851-.461-2.43-1.385-.58-.923-.869-2.249-.869-3.978 0-1.728.289-3.043.869-3.945.579-.902 1.389-1.353 2.43-1.353 1.03 0 1.834.451 2.413 1.353.58.902.87 2.217.87 3.945 0 1.729-.29 3.055-.87 3.978-.579.924-1.383 1.385-2.413 1.385zm0-1.063c.299 0 .568-.081.804-.242.247-.171.456-.429.628-.773.182-.354.322-.799.418-1.336.097-.548.145-1.197.145-1.949 0-.751-.048-1.395-.145-1.932-.096-.537-.236-.972-.418-1.305-.172-.343-.381-.596-.628-.757a1.395 1.395 0 00-.804-.241c-.301 0-.575.08-.821.241-.247.161-.462.414-.644.757-.172.333-.306.768-.402 1.305-.097.537-.145 1.181-.145 1.932 0 1.504.182 2.599.547 3.285.375.677.863 1.015 1.465 1.015zm27.311.869v-.789c.772-.773 1.459-1.47 2.06-2.093.6-.622 1.105-1.197 1.512-1.723.408-.537.72-1.025.934-1.466.214-.451.322-.885.322-1.304 0-.59-.161-1.073-.483-1.449-.322-.376-.81-.564-1.465-.564-.429 0-.825.124-1.19.37a4.813 4.813 0 00-.998.87l-.756-.757a5.78 5.78 0 011.367-1.127c.483-.29 1.063-.435 1.738-.435.955 0 1.706.28 2.253.837.548.548.821 1.279.821 2.191 0 .483-.107.972-.322 1.465a7.952 7.952 0 01-.869 1.514 17.557 17.557 0 01-1.319 1.626 70.649 70.649 0 01-1.674 1.788l.869-.065c.301-.021.584-.032.853-.032h2.977v1.143h-6.63zm11.04.194c-1.04 0-1.85-.461-2.43-1.385-.579-.923-.869-2.249-.869-3.978 0-1.728.29-3.043.869-3.945.58-.902 1.39-1.353 2.43-1.353 1.03 0 1.835.451 2.414 1.353.58.902.869 2.217.869 3.945 0 1.729-.289 3.055-.869 3.978-.579.924-1.384 1.385-2.414 1.385zm0-1.063c.301 0 .57-.081.805-.242.247-.171.457-.429.628-.773.183-.354.322-.799.418-1.336.097-.548.145-1.197.145-1.949 0-.751-.048-1.395-.145-1.932-.096-.537-.235-.972-.418-1.305-.171-.343-.381-.596-.628-.757a1.391 1.391 0 00-.805-.241c-.299 0-.573.08-.82.241-.247.161-.461.414-.644.757-.171.333-.306.768-.402 1.305-.097.537-.145 1.181-.145 1.932 0 1.504.183 2.599.547 3.285.376.677.864 1.015 1.464 1.015zm4.315.869v-.789c.772-.773 1.459-1.47 2.06-2.093.6-.622 1.104-1.197 1.513-1.723.407-.537.718-1.025.933-1.466.214-.451.322-.885.322-1.304 0-.59-.161-1.073-.483-1.449-.322-.376-.81-.564-1.464-.564-.43 0-.827.124-1.191.37a4.788 4.788 0 00-.998.87l-.756-.757a5.745 5.745 0 011.368-1.127c.482-.29 1.062-.435 1.738-.435.954 0 1.705.28 2.253.837.547.548.82 1.279.82 2.191 0 .483-.107.972-.322 1.465a7.952 7.952 0 01-.869 1.514 17.557 17.557 0 01-1.319 1.626 72.523 72.523 0 01-1.674 1.788l.869-.065c.3-.021.585-.032.853-.032h2.977v1.143h-6.63zm8.305 0v-1.095h2.349v-7.568h-1.866v-.854c.471-.085.88-.187 1.223-.306.354-.129.67-.279.949-.451h1.014v9.179h2.124v1.095h-5.793zM305.961 7.05a.848.848 0 00-.44-1.116l-6.991-3.04a.848.848 0 00-.675 1.555l6.214 2.702-2.699 6.22a.846.846 0 101.553.675l3.038-6.997zM5.769 125.755L305.495 7.5l-.622-1.577L5.147 124.179l.622 1.577zm128.04-63.529l-.905-2.31-3.028 1.187-1.187-3.03-2.309.905 1.187 3.03-3.047 1.195.905 2.31 3.047-1.194 1.186 3.03 2.309-.906-1.186-3.03 3.028-1.187zm11.481.217l-.868-2.216-5.205 2.04 2.054-5.851c.504-1.443.741-2.344.229-3.651-.949-2.425-3.239-3.253-5.623-2.318-2.309.906-3.529 3.088-2.565 5.55l2.461-.965c-.512-1.306.157-2.05.971-2.369 1.041-.408 1.895.044 2.288 1.048.245.625.2 1.123-.062 1.903l-2.742 7.826.867 2.216 8.195-3.213zm8.294-7.754l-2.225-5.681c-1.009-2.576-3.465-3.273-5.66-2.412-2.196.86-3.543 3.05-2.535 5.625l2.225 5.682c1.009 2.576 3.484 3.266 5.68 2.405 2.195-.861 3.524-3.043 2.515-5.619zm-2.467.946c.445 1.137.068 2.07-.916 2.457-.984.386-1.914-.036-2.359-1.173l-2.203-5.625c-.444-1.136-.056-2.096.928-2.482.984-.386 1.902.062 2.347 1.198l2.203 5.625zm9.058 2.172l-1.461-3.731-2.706 1.061 2.277 5.815 1.89-3.145zm8.435-9.032c-.646-1.647-1.959-2.159-2.89-2.362.495-.74.98-1.957.416-3.396-.934-2.387-3.38-3.11-5.632-2.227s-3.573 3.084-2.639 5.47c.564 1.44 1.746 2.003 2.612 2.21-.545.781-1.143 2.042-.498 3.69 1.024 2.614 3.511 3.277 5.895 2.342 2.385-.935 3.759-3.113 2.736-5.727zm-2.476.928a1.97 1.97 0 01-1.127 2.583 1.97 1.97 0 01-2.582-1.129c-.408-1.041.08-2.194 1.121-2.602 1.041-.408 2.181.106 2.588 1.148zm-2.429-5.646c.386.985-.032 1.98-.998 2.358-.965.378-1.966-.06-2.352-1.044-.378-.966.052-1.987 1.017-2.365.966-.379 1.955.085 2.333 1.051zm7.964-2.577c.289.739.082 1.214-.524 1.451-.624.245-1.099.038-1.387-.701l-.676-1.723c-.289-.739-.082-1.214.543-1.459.605-.237 1.079-.03 1.369.709l.675 1.723zm1.809-.621l-.735-1.876c-.667-1.704-2.265-2.104-3.741-1.525-1.496.586-2.415 1.973-1.747 3.678l.734 1.875c.667 1.704 2.284 2.097 3.779 1.51 1.477-.578 2.377-1.958 1.71-3.663zm9.394 3.919c.282.72.075 1.194-.549 1.439-.625.245-1.1.037-1.381-.683l-.683-1.742c-.282-.72-.082-1.213.542-1.458.626-.245 1.107-.019 1.389.701l.682 1.743zm1.802-.641l-.734-1.875c-.668-1.705-2.266-2.105-3.761-1.519-1.495.586-2.396 1.966-1.729 3.671l.735 1.875c.675 1.723 2.265 2.105 3.76 1.518 1.495-.586 2.403-1.947 1.729-3.67zm-7.187-9.876l-1.93.757-1.097 15.986 1.93-.757 1.097-15.986z" fill="#fff"/><path d="M40.308 305.228a5.106 5.106 0 01-2.166-.456 4.88 4.88 0 01-1.672-1.292c-.469-.57-.836-1.254-1.102-2.052-.253-.811-.38-1.716-.38-2.717 0-1.001.127-1.894.38-2.679.266-.798.633-1.469 1.102-2.014a4.674 4.674 0 011.672-1.273 5.3 5.3 0 012.166-.437c.785 0 1.501.152 2.147.456a4.631 4.631 0 011.691 1.273c.481.545.849 1.216 1.102 2.014.266.785.399 1.672.399 2.66 0 1.001-.133 1.906-.399 2.717-.253.798-.62 1.482-1.102 2.052a4.83 4.83 0 01-1.691 1.292c-.646.304-1.362.456-2.147.456zm0-1.387c.557 0 1.058-.12 1.501-.361a3.324 3.324 0 001.159-1.026c.33-.456.583-.994.76-1.615.177-.633.266-1.343.266-2.128 0-.773-.089-1.469-.266-2.09-.177-.621-.43-1.146-.76-1.577a3.203 3.203 0 00-1.159-.988 3.091 3.091 0 00-1.501-.361c-.557 0-1.064.12-1.52.361-.443.228-.83.557-1.159.988-.317.431-.564.956-.741 1.577-.177.621-.266 1.317-.266 2.09 0 .785.089 1.495.266 2.128.177.621.424 1.159.741 1.615.33.443.716.785 1.159 1.026.456.241.963.361 1.52.361zm11.667 1.387c-1.38 0-2.45-.5-3.21-1.501-.76-1.013-1.14-2.457-1.14-4.332 0-1.558.132-2.812.398-3.762.279-.95.671-1.697 1.178-2.242a4.14 4.14 0 011.824-1.178 15.02 15.02 0 012.394-.57c.254-.038.469-.07.646-.095.178-.038.336-.076.475-.114.152-.038.285-.082.4-.133.126-.051.259-.108.398-.171l.304 1.425a3.082 3.082 0 01-.855.38 12.52 12.52 0 01-1.045.209c-.747.114-1.393.234-1.938.361-.532.127-.982.342-1.349.646-.355.291-.633.709-.836 1.254-.203.545-.342 1.292-.418 2.242.405-.507.88-.887 1.425-1.14a3.93 3.93 0 011.71-.399c.545 0 1.045.101 1.501.304.456.19.842.475 1.16.855.328.367.582.817.76 1.349.19.532.284 1.134.284 1.805 0 .735-.107 1.4-.323 1.995a4.694 4.694 0 01-.874 1.52 3.855 3.855 0 01-1.292.969 3.91 3.91 0 01-1.577.323zm0-1.292c.355 0 .678-.082.97-.247.303-.177.563-.418.778-.722.228-.317.4-.69.513-1.121a5.04 5.04 0 00.19-1.425c0-.95-.215-1.704-.646-2.261-.43-.57-1.045-.855-1.843-.855-.443 0-.905.12-1.387.361-.481.241-.956.678-1.425 1.311v.722c0 1.343.234 2.388.703 3.135.481.735 1.197 1.102 2.147 1.102zm8.09 1.064v-7.961h-3.268v-1.273h4.826v3.401h1.539c1.102 0 1.988.234 2.66.703.671.456 1.007 1.184 1.007 2.185 0 1.026-.336 1.773-1.007 2.242-.672.469-1.558.703-2.66.703h-3.097zm1.558-1.254h1.387c1.532 0 2.299-.564 2.299-1.691 0-.583-.19-1.007-.57-1.273-.38-.266-.957-.399-1.73-.399h-1.386v3.363zm11.3 1.482a4.72 4.72 0 01-1.749-.323 4.46 4.46 0 01-1.406-.95 4.588 4.588 0 01-.93-1.52c-.229-.595-.343-1.273-.343-2.033s.114-1.438.342-2.033c.24-.608.551-1.121.931-1.539a4.015 4.015 0 011.33-.95 3.633 3.633 0 011.54-.342c.582 0 1.101.101 1.557.304.469.203.855.494 1.16.874.316.38.556.836.721 1.368.165.532.247 1.127.247 1.786 0 .165-.006.329-.019.494 0 .152-.013.285-.038.399h-6.232c.063.988.367 1.773.912 2.356.557.57 1.28.855 2.166.855.443 0 .849-.063 1.216-.19.38-.139.741-.317 1.083-.532l.551 1.026a7.89 7.89 0 01-1.349.665c-.494.19-1.058.285-1.69.285zm-2.908-5.586h4.94c0-.937-.203-1.647-.608-2.128-.393-.494-.95-.741-1.672-.741-.33 0-.646.063-.95.19a2.453 2.453 0 00-.798.57c-.24.241-.443.538-.608.893a4.28 4.28 0 00-.304 1.216zm8.59 5.358v-9.234h1.805l1.805 4.332.418 1.14.418 1.102h.076l.418-1.102c.152-.38.291-.76.418-1.14l1.767-4.332h1.786V305H86.09v-4.142c0-.203.006-.437.019-.703l.038-.836c.025-.291.044-.576.057-.855.025-.291.05-.557.076-.798h-.076c-.14.367-.285.741-.437 1.121-.14.367-.279.722-.418 1.064l-1.748 4.275h-1.045l-1.786-4.275c-.14-.342-.285-.697-.437-1.064-.14-.38-.279-.754-.418-1.121h-.076c.013.241.025.507.038.798.025.279.044.564.057.855a18.62 18.62 0 01.076 1.539V305h-1.406zm15.827 3.895v-13.129h1.292l.133 1.064h.057a7.117 7.117 0 011.368-.912 3.49 3.49 0 011.577-.38c.595 0 1.121.114 1.577.342.456.215.836.532 1.14.95.304.405.532.899.684 1.482.165.57.247 1.216.247 1.938 0 .785-.108 1.488-.323 2.109a4.89 4.89 0 01-.874 1.558c-.367.431-.792.76-1.273.988a3.686 3.686 0 01-1.52.323c-.43 0-.861-.095-1.292-.285a6.642 6.642 0 01-1.273-.779l.038 1.615v3.116h-1.558zm3.819-4.978c.38 0 .728-.082 1.045-.247.33-.177.608-.418.836-.722a3.4 3.4 0 00.551-1.159 5.27 5.27 0 00.209-1.539c0-.507-.044-.969-.133-1.387a2.892 2.892 0 00-.437-1.064 1.935 1.935 0 00-.76-.703c-.304-.165-.671-.247-1.102-.247-.393 0-.792.108-1.197.323-.393.215-.817.526-1.273.931v4.845c.418.355.823.608 1.216.76.393.139.741.209 1.045.209zm6.72 1.083v-9.234h1.558v3.401h1.311a5.95 5.95 0 011.482.171c.456.114.842.291 1.159.532.329.228.583.526.76.893.177.355.266.785.266 1.292 0 .519-.089.963-.266 1.33a2.416 2.416 0 01-.76.912 3.153 3.153 0 01-1.159.532 5.95 5.95 0 01-1.482.171h-2.869zm1.558-1.254h1.14c1.533 0 2.299-.564 2.299-1.691 0-.583-.19-1.007-.57-1.273-.367-.266-.944-.399-1.729-.399h-1.14v3.363zm6.574 1.254v-9.234h1.558V305h-1.558zm4.671 0v-9.234h1.558v3.743h4.446v-3.743h1.558V305h-1.558v-4.104h-4.446V305h-1.558zm10.669 0v-9.234h1.558v3.8h1.786l.912-2.052c.177-.405.354-.735.532-.988.177-.253.367-.45.57-.589.202-.152.411-.253.627-.304a2.49 2.49 0 01.703-.095c.202 0 .38.032.532.095l-.266 1.463a.45.45 0 00-.152-.038h-.152c-.127 0-.247.019-.361.057a.878.878 0 00-.323.171 2.056 2.056 0 00-.323.38c-.114.165-.228.38-.342.646l-.779 1.824L136.1 305h-1.71l-2.565-4.161h-1.824V305h-1.558zm11.405.228c-.773 0-1.419-.228-1.938-.684-.507-.456-.76-1.102-.76-1.938 0-1.013.45-1.786 1.349-2.318.899-.545 2.337-.925 4.313-1.14a3.87 3.87 0 00-.095-.855 2.017 2.017 0 00-.285-.741 1.465 1.465 0 00-.589-.513c-.241-.139-.551-.209-.931-.209-.532 0-1.032.101-1.501.304a7.343 7.343 0 00-1.254.684l-.608-1.083a9.532 9.532 0 011.577-.798 5.158 5.158 0 012.052-.399c1.127 0 1.944.348 2.451 1.045.507.684.76 1.602.76 2.755V305h-1.292l-.133-1.102h-.057a8.201 8.201 0 01-1.425.95 3.608 3.608 0 01-1.634.38zm.456-1.254c.443 0 .861-.101 1.254-.304.393-.215.811-.526 1.254-.931v-2.565c-.773.101-1.425.222-1.957.361-.519.139-.944.304-1.273.494-.317.19-.551.412-.703.665a1.569 1.569 0 00-.209.798c0 .532.158.912.475 1.14.317.228.703.342 1.159.342zm14.404 1.254a5.968 5.968 0 01-4.37-1.843l.95-1.102c.443.469.963.849 1.558 1.14a4.463 4.463 0 001.881.418c.823 0 1.463-.184 1.919-.551.456-.38.684-.874.684-1.482 0-.317-.057-.583-.171-.798a1.493 1.493 0 00-.437-.57 2.747 2.747 0 00-.646-.437c-.253-.127-.526-.26-.817-.399l-1.786-.779a8.68 8.68 0 01-.893-.456 3.682 3.682 0 01-.817-.646 3.116 3.116 0 01-.589-.893 3.063 3.063 0 01-.228-1.216c0-.469.095-.906.285-1.311.203-.405.475-.754.817-1.045a3.831 3.831 0 011.235-.703 4.833 4.833 0 011.577-.247 4.9 4.9 0 012.071.437 5.076 5.076 0 011.615 1.102l-.855 1.026a4.254 4.254 0 00-1.273-.855c-.456-.215-.975-.323-1.558-.323-.697 0-1.26.165-1.691.494-.418.317-.627.76-.627 1.33 0 .304.057.564.171.779.127.203.291.386.494.551.203.152.424.291.665.418.241.114.488.222.741.323l1.767.76c.355.152.69.329 1.007.532a3.3 3.3 0 01.817.684c.228.253.405.557.532.912.139.342.209.741.209 1.197 0 .494-.101.956-.304 1.387-.19.431-.469.811-.836 1.14-.367.317-.811.57-1.33.76-.519.177-1.108.266-1.767.266zm8.983 0c-.494 0-.912-.076-1.254-.228a2.233 2.233 0 01-.817-.627 2.507 2.507 0 01-.437-.969 5.501 5.501 0 01-.133-1.254v-5.111h-1.368v-1.178l1.444-.095.19-2.584h1.311v2.584h2.489v1.273h-2.489v5.13c0 .57.101 1.013.304 1.33.215.304.589.456 1.121.456.164 0 .342-.025.532-.076s.361-.108.513-.171l.304 1.178a6.544 6.544 0 01-.836.228 3.456 3.456 0 01-.874.114zm6.996 0a4.714 4.714 0 01-1.748-.323 4.448 4.448 0 01-1.406-.95 4.583 4.583 0 01-.931-1.52c-.228-.595-.342-1.273-.342-2.033s.114-1.438.342-2.033c.24-.608.551-1.121.931-1.539a4.008 4.008 0 011.33-.95 3.633 3.633 0 011.539-.342c.582 0 1.102.101 1.558.304a2.97 2.97 0 011.159.874c.316.38.557.836.722 1.368.164.532.247 1.127.247 1.786 0 .165-.007.329-.019.494 0 .152-.013.285-.038.399h-6.232c.063.988.367 1.773.912 2.356.557.57 1.279.855 2.166.855.443 0 .848-.063 1.216-.19.38-.139.741-.317 1.083-.532l.551 1.026a7.915 7.915 0 01-1.349.665c-.494.19-1.058.285-1.691.285zm-2.907-5.586h4.94c0-.937-.203-1.647-.608-2.128-.393-.494-.95-.741-1.672-.741-.33 0-.646.063-.95.19a2.438 2.438 0 00-.798.57 3.064 3.064 0 00-.608.893c-.152.355-.254.76-.304 1.216zm10.458 5.586c-.773 0-1.419-.228-1.938-.684-.507-.456-.76-1.102-.76-1.938 0-1.013.449-1.786 1.349-2.318.899-.545 2.337-.925 4.313-1.14a3.87 3.87 0 00-.095-.855 2.017 2.017 0 00-.285-.741 1.472 1.472 0 00-.589-.513c-.241-.139-.551-.209-.931-.209-.532 0-1.033.101-1.501.304a7.343 7.343 0 00-1.254.684l-.608-1.083c.43-.279.956-.545 1.577-.798a5.151 5.151 0 012.052-.399c1.127 0 1.944.348 2.451 1.045.506.684.76 1.602.76 2.755V305h-1.292l-.133-1.102h-.057a8.278 8.278 0 01-1.425.95 3.61 3.61 0 01-1.634.38zm.456-1.254c.443 0 .861-.101 1.254-.304.392-.215.81-.526 1.254-.931v-2.565c-.773.101-1.425.222-1.957.361-.52.139-.944.304-1.273.494-.317.19-.551.412-.703.665a1.56 1.56 0 00-.209.798c0 .532.158.912.475 1.14.316.228.703.342 1.159.342zm6.99 1.026v-9.234h1.292l.133 1.33h.057a6.233 6.233 0 011.311-1.102 2.864 2.864 0 011.558-.456c.709 0 1.26.158 1.653.475.405.304.703.735.893 1.292a7.666 7.666 0 011.444-1.273 2.826 2.826 0 011.596-.494c.95 0 1.653.304 2.109.912.469.608.703 1.507.703 2.698V305h-1.558v-5.643c0-.874-.139-1.501-.418-1.881-.279-.393-.709-.589-1.292-.589-.697 0-1.469.475-2.318 1.425V305h-1.558v-5.643c0-.874-.139-1.501-.418-1.881-.279-.393-.716-.589-1.311-.589-.697 0-1.469.475-2.318 1.425V305h-1.558zm15.468 3.23l-.38-.912c.545-.241.969-.564 1.273-.969.304-.393.45-.842.437-1.349a.653.653 0 01-.19.019c-.304 0-.57-.089-.798-.266-.215-.19-.323-.462-.323-.817 0-.342.114-.608.342-.798.228-.203.5-.304.817-.304.405 0 .722.165.95.494.241.329.361.779.361 1.349 0 .823-.222 1.539-.665 2.147-.443.608-1.051 1.077-1.824 1.406zm8.82-3.23v-9.234h1.805l1.805 4.332.418 1.14.418 1.102h.076l.418-1.102c.152-.38.291-.76.418-1.14l1.767-4.332h1.786V305h-1.425v-4.142c0-.203.006-.437.019-.703l.038-.836c.025-.291.044-.576.057-.855.025-.291.051-.557.076-.798h-.076c-.139.367-.285.741-.437 1.121-.139.367-.279.722-.418 1.064l-1.748 4.275h-1.045l-1.786-4.275c-.139-.342-.285-.697-.437-1.064-.139-.38-.279-.754-.418-1.121h-.076c.013.241.025.507.038.798.025.279.044.564.057.855a19.552 19.552 0 01.076 1.539V305h-1.406zm11.492.228c-.178 0-.33-.013-.456-.038a2.954 2.954 0 01-.38-.114l.304-1.444c.063.025.126.044.19.057.063.013.139.019.228.019.329 0 .595-.152.798-.456.202-.317.348-.817.437-1.501.126-1.001.247-1.995.36-2.983l.343-3.002h5.681V305h-1.577v-7.961h-2.869c-.102.849-.203 1.704-.304 2.565l-.304 2.546c-.266 2.052-1.083 3.078-2.451 3.078zm10.625 3.667v-13.129h1.292l.133 1.064h.057a7.117 7.117 0 011.368-.912 3.492 3.492 0 011.577-.38c.596 0 1.121.114 1.577.342.456.215.836.532 1.14.95.304.405.532.899.684 1.482.165.57.247 1.216.247 1.938 0 .785-.107 1.488-.323 2.109a4.87 4.87 0 01-.874 1.558c-.367.431-.791.76-1.273.988a3.685 3.685 0 01-1.52.323c-.43 0-.861-.095-1.292-.285a6.652 6.652 0 01-1.273-.779l.038 1.615v3.116h-1.558zm3.819-4.978c.38 0 .729-.082 1.045-.247.33-.177.608-.418.836-.722a3.38 3.38 0 00.551-1.159c.14-.456.209-.969.209-1.539 0-.507-.044-.969-.133-1.387a2.875 2.875 0 00-.437-1.064 1.933 1.933 0 00-.76-.703c-.304-.165-.671-.247-1.102-.247-.392 0-.791.108-1.197.323-.392.215-.817.526-1.273.931v4.845c.418.355.824.608 1.216.76.393.139.741.209 1.045.209zm7.043 1.083v3.268h-1.349l-.171-3.553v-.988h.456c.127-.076.247-.177.361-.304.127-.139.241-.348.342-.627.102-.279.203-.652.304-1.121.102-.469.197-1.077.285-1.824l.494-4.085h5.738v7.961h1.349v.988l-.152 3.553h-1.349V305h-6.308zm1.596-4.845c-.101.912-.24 1.653-.418 2.223-.164.57-.354 1.02-.57 1.349h4.294v-6.688h-2.945l-.361 3.116zm12.32 4.845v3.268h-1.349l-.171-3.553v-.988h.456c.127-.076.247-.177.361-.304.127-.139.241-.348.342-.627.102-.279.203-.652.304-1.121.102-.469.197-1.077.285-1.824l.494-4.085h5.738v7.961h1.349v.988l-.152 3.553h-1.349V305h-6.308zm1.596-4.845c-.101.912-.24 1.653-.418 2.223-.164.57-.354 1.02-.57 1.349h4.294v-6.688h-2.945l-.361 3.116zm11.785 5.073a4.23 4.23 0 01-1.634-.323 4.08 4.08 0 01-1.349-.931 4.829 4.829 0 01-.95-1.52c-.228-.608-.342-1.292-.342-2.052 0-.773.114-1.457.342-2.052.24-.608.557-1.121.95-1.539a3.951 3.951 0 011.349-.95 4.23 4.23 0 011.634-.323c.57 0 1.108.108 1.615.323a3.92 3.92 0 011.368.95c.392.418.703.931.931 1.539.24.595.361 1.279.361 2.052 0 .76-.121 1.444-.361 2.052a4.6 4.6 0 01-.931 1.52 4.047 4.047 0 01-1.368.931 4.093 4.093 0 01-1.615.323zm0-1.292c.392 0 .753-.082 1.083-.247.329-.177.608-.418.836-.722.24-.317.424-.69.551-1.121.126-.431.19-.912.19-1.444 0-.532-.064-1.013-.19-1.444a3.438 3.438 0 00-.551-1.14 2.28 2.28 0 00-.836-.722 2.255 2.255 0 00-1.083-.266 2.25 2.25 0 00-1.083.266c-.33.165-.615.405-.855.722a3.641 3.641 0 00-.532 1.14 5.1 5.1 0 00-.19 1.444 5.1 5.1 0 00.19 1.444c.126.431.304.804.532 1.121.24.304.525.545.855.722.329.165.69.247 1.083.247zm6.174 1.292c-.177 0-.329-.013-.456-.038a3.002 3.002 0 01-.38-.114l.304-1.444c.064.025.127.044.19.057.064.013.14.019.228.019.33 0 .596-.152.798-.456.203-.317.349-.817.437-1.501.127-1.001.247-1.995.361-2.983l.342-3.002h5.681V305h-1.577v-7.961h-2.869l-.304 2.565-.304 2.546c-.266 2.052-1.083 3.078-2.451 3.078zm10.094 0c-.177 0-.329-.013-.456-.038a3.002 3.002 0 01-.38-.114l.304-1.444c.064.025.127.044.19.057.064.013.14.019.228.019.33 0 .596-.152.798-.456.203-.317.349-.817.437-1.501.127-1.001.247-1.995.361-2.983l.342-3.002h5.681V305h-1.577v-7.961h-2.869l-.304 2.565-.304 2.546c-.266 2.052-1.083 3.078-2.451 3.078z" fill="#D7B273"/><defs><linearGradient id="paint0_linear" x1="21.452" y1="181.246" x2="21.452" y2="248.23" gradientUnits="userSpaceOnUse"><stop stop-color="#D7B273"/><stop offset="1" stop-color="#DEB169" stop-opacity=".42"/></linearGradient><linearGradient id="paint1_linear" x1="74.956" y1="165.886" x2="74.956" y2="248.754" gradientUnits="userSpaceOnUse"><stop stop-color="#D7B273"/><stop offset="1" stop-color="#DEB169" stop-opacity=".42"/></linearGradient><linearGradient id="paint2_linear" x1="128.456" y1="141.495" x2="128.456" y2="247.843" gradientUnits="userSpaceOnUse"><stop stop-color="#D7B273"/><stop offset="1" stop-color="#DEB169" stop-opacity=".42"/></linearGradient><linearGradient id="paint3_linear" x1="182.214" y1="124.443" x2="182.214" y2="248.746" gradientUnits="userSpaceOnUse"><stop stop-color="#D7B273"/><stop offset="1" stop-color="#DEB169" stop-opacity=".42"/></linearGradient><linearGradient id="paint4_linear" x1="235.417" y1="101.563" x2="235.417" y2="248.654" gradientUnits="userSpaceOnUse"><stop stop-color="#D7B273"/><stop offset="1" stop-color="#DEB169" stop-opacity=".42"/></linearGradient><linearGradient id="paint5_linear" x1="289.124" y1="77.388" x2="289.124" y2="248.649" gradientUnits="userSpaceOnUse"><stop stop-color="#D7B273"/><stop offset="1" stop-color="#DEB169" stop-opacity=".42"/></linearGradient></defs></svg>