<svg width="30" height="30" fill="none" xmlns="http://www.w3.org/2000/svg"><g clip-path="url(#clip0)"><path fill-rule="evenodd" clip-rule="evenodd" d="M15 .198c8.284 0 15 6.712 15 14.992 0 7.472-5.47 13.667-12.624 14.805V19.561h3.494l.665-4.325h-.038l.007-.046h-4.128v-2.76c0-1.184.58-2.337 2.444-2.337h1.89V6.411l-.03-.005v-.059s-1.717-.293-3.358-.293c-3.426 0-5.666 2.076-5.666 5.833v3.303H8.848v4.334h.034v.037h3.774V30C5.486 28.875 0 22.672 0 15.19 0 6.91 6.716.197 15 .197z" fill="#fff"/></g><defs><clipPath id="clip0"><path fill="#fff" d="M0 0h30v30H0z"/></clipPath></defs></svg>