<svg width="130" height="68" fill="none" xmlns="http://www.w3.org/2000/svg"><path d="M25.966 66.261C39.295 66.261 50.1 55.4 50.1 42c0-13.4-10.805-24.262-24.134-24.262S1.832 28.601 1.832 42c0 13.4 10.805 24.261 24.134 24.261z" stroke="url(#paint0_linear)" stroke-width="3"/><path d="M33.05 53.41c1.37-1.353 2.056-3.076 2.056-5.17 0-1.148-.19-2.156-.57-3.024-.382-.868-.979-1.595-1.791-2.183-.813-.612-1.562-1.084-2.247-1.416-.686-.332-1.613-.715-2.78-1.149l-2.4-.919c-1.295-.536-2.235-1.11-2.819-1.723-.584-.612-.876-1.404-.876-2.374 0-1.046.33-1.902.99-2.565.686-.69 1.588-1.11 2.705-1.264 0 0 .794-.097 1.255-.098.46 0 1.144.137 1.144.137 1.854.357 3.149 1.467 3.885 3.33l2.971-1.684c-.66-1.48-1.587-2.655-2.78-3.523-1.194-.867-2.552-1.404-4.076-1.608V24.77h-2.4v3.37c-2.056.204-3.77.957-5.141 2.259s-2.057 2.987-2.057 5.054c0 1.123.178 2.119.533 2.987a5.592 5.592 0 001.714 2.144c.762.587 1.486 1.06 2.171 1.417.711.332 1.638.702 2.78 1.11l2.4.88c1.32.562 2.286 1.162 2.895 1.8.635.613.952 1.443.952 2.49 0 1.046-.343 1.94-1.028 2.68-.66.714-1.6 1.16-2.819 1.34 0 0-.488.061-1.033.076-.545.015-1.366 0-1.366 0-2.768-.306-4.583-1.646-5.447-4.02l-3.047 1.761c.66 1.685 1.714 3.025 3.161 4.02 1.473.996 3.25 1.57 5.333 1.724v3.369h2.4v-3.408c2.183-.255 3.96-1.06 5.332-2.412z" fill="url(#paint1_linear)"/><path d="M26.761 24.77v34.458" stroke="url(#paint2_linear)" stroke-width="3"/><mask id="a" maskUnits="userSpaceOnUse" x="58" y="0" width="72" height="68"><path fill-rule="evenodd" clip-rule="evenodd" d="M101.993.384h27.533v67.471H58.797V44.92h22.185V23.807h21.011V.385z" fill="#fff"/></mask><g mask="url(#a)"><path d="M129.525.384h3.171v-3.188h-3.171V.384zm-27.533 0v-3.188h-3.17V.384h3.17zm27.533 67.471v3.188h3.171v-3.188h-3.171zm-27.533 0h-3.17v3.188h3.17v-3.188zm0 0h3.171v-3.188h-3.171v3.188zm-21.01 0H77.81v3.188h3.17v-3.188zm0 0h3.17v-3.188h-3.17v3.188zm-22.185 0h-3.171v3.187h3.17v-3.187zm0-22.935v-3.188h-3.171v3.188h3.17zm22.185 0v3.187h3.17V44.92h-3.17zm0-21.113V20.62H77.81v3.188h3.17zm21.01 0v3.188h3.171v-3.188h-3.171zm27.533-26.61h-27.533V3.57h27.533v-6.375zm3.171 70.658V.384h-6.341v67.471h6.341zm-30.704 3.188h27.533v-6.375h-27.533v6.375zm-3.17-3.188h6.341-6.341zm3.17-3.188h-21.01v6.376h21.01v-6.376zm-17.84 3.188h-6.341 6.341zm-25.355 3.187h22.185v-6.375H58.797v6.375zM55.626 44.92v22.935h6.341V44.92h-6.341zm25.356-3.188H58.797v6.375h22.185v-6.375zm3.17 3.188V23.807h-6.341V44.92h6.341zm-3.17-17.925h21.01V20.62h-21.01v6.375zM98.822.384v23.424h6.341V.384h-6.341z" fill="url(#paint3_linear)"/></g><defs><linearGradient id="paint0_linear" x1="25.966" y1="17.738" x2="25.966" y2="66.261" gradientUnits="userSpaceOnUse"><stop stop-color="#D7B273"/><stop offset=".417" stop-color="#B48E4D"/><stop offset="1" stop-color="#584018"/></linearGradient><linearGradient id="paint1_linear" x1="25.965" y1="24.769" x2="25.965" y2="59.23" gradientUnits="userSpaceOnUse"><stop stop-color="#D7B273"/><stop offset=".417" stop-color="#B48E4D"/><stop offset="1" stop-color="#584018"/></linearGradient><linearGradient id="paint2_linear" x1="27.261" y1="24.769" x2="27.261" y2="59.228" gradientUnits="userSpaceOnUse"><stop stop-color="#D7B273"/><stop offset=".417" stop-color="#B48E4D"/><stop offset="1" stop-color="#584018"/></linearGradient><linearGradient id="paint3_linear" x1="94.161" y1="-2.804" x2="94.161" y2="71.043" gradientUnits="userSpaceOnUse"><stop stop-color="#D7B273"/><stop offset=".417" stop-color="#B48E4D"/><stop offset="1" stop-color="#584018"/></linearGradient></defs></svg>