<svg width="101" height="101" fill="none" xmlns="http://www.w3.org/2000/svg"><path d="M78.517 2.013a1.184 1.184 0 00-1.45.836l-.545 2.023a1.186 1.186 0 00.827 1.482 1.183 1.183 0 001.458-.867l.545-2.023a1.184 1.184 0 00-.835-1.45z" fill="url(#paint0_linear)"/><path d="M75.469 8.793l-.545 2.023a1.183 1.183 0 002.082 1.03c.095-.124.165-.265.205-.415l.544-2.023a1.184 1.184 0 00-2.286-.615z" fill="url(#paint1_linear)"/><path d="M77.952 7.36a1.183 1.183 0 00.833 1.451l2.019.546a1.184 1.184 0 00.618-2.285l-2.019-.546a1.185 1.185 0 00-1.451.834z" fill="url(#paint2_linear)"/><path d="M75.49 5.468l-2.018-.545a1.183 1.183 0 00-.617 2.285l2.018.546a1.183 1.183 0 00.618-2.286z" fill="url(#paint3_linear)"/><path d="M11.918 67.41a1.184 1.184 0 00-1.451.834l-.544 2.023a1.184 1.184 0 002.285.616l.545-2.023a1.184 1.184 0 00-.835-1.45z" fill="url(#paint4_linear)"/><path d="M10.61 76.827l.544-2.024a1.183 1.183 0 00-2.286-.614l-.544 2.023a1.184 1.184 0 102.286.615z" fill="url(#paint5_linear)"/><path d="M11.354 72.755a1.182 1.182 0 00.833 1.452l2.019.546a1.184 1.184 0 00.617-2.285l-2.018-.546a1.184 1.184 0 00-1.451.833z" fill="url(#paint6_linear)"/><path d="M9.723 72.316a1.184 1.184 0 00-.833-1.451l-2.018-.546a1.184 1.184 0 10-.619 2.285l2.019.546a1.18 1.18 0 001.451-.834z" fill="url(#paint7_linear)"/><path d="M13.28 10.293l.544-2.023a1.183 1.183 0 10-2.286-.615l-.545 2.023a1.185 1.185 0 002.084 1.034c.095-.125.163-.267.202-.419z" fill="url(#paint8_linear)"/><path d="M10.232 17.072a1.181 1.181 0 001.45-.835l.544-2.023a1.183 1.183 0 10-2.285-.615l-.545 2.023a1.184 1.184 0 00.835 1.45z" fill="url(#paint9_linear)"/><path d="M13.258 13.617l2.019.547a1.184 1.184 0 10.617-2.285l-2.018-.547a1.183 1.183 0 10-.618 2.285z" fill="url(#paint10_linear)"/><path d="M10.8 11.727a1.184 1.184 0 00-.833-1.452L7.95 9.729a1.184 1.184 0 00-.618 2.285l2.018.546a1.182 1.182 0 001.452-.833z" fill="url(#paint11_linear)"/><path d="M92.998 71.352h-3.533l4.806-38.404a2.534 2.534 0 00-.723-2.116l-3.716-3.74a6.307 6.307 0 011.956 1.002 1.227 1.227 0 001.697-1.738c-2.077-2.699-1.25-4.754-.046-6.572a1.297 1.297 0 00-1.839-1.767c-1.234.89-3.707 2.11-6.391.282a1.227 1.227 0 00-1.686 1.732c.356.486.63 1.027.81 1.602l-4.755-4.807a2.502 2.502 0 00-1.784-.74h-.005a2.501 2.501 0 00-1.787.75l-9.9 10.017L64.678 4.61a2.417 2.417 0 00-2.057-2.333 1.205 1.205 0 00-.231-.011l-19.78.941c-1.134.025-1.919.493-2.332 1.39a1.172 1.172 0 00-.057.148l-1.992 6.491c-.454-1.647-.285-3.215-.172-4.252A1.36 1.36 0 0036.153 5.6a1.341 1.341 0 00-.65.62c-1.12 2.204-3.784 5.806-9.041 5.168a1.249 1.249 0 00-.718 2.354c4.717 2.402 4.92 6.911 4.623 9.383a1.355 1.355 0 002.045 1.319c.212-.127.385-.31.5-.527.554-1.06 1.43-2.734 3.087-3.91l-1.616 7.339-13.398-3.855a1.948 1.948 0 00-2.258.941l-9.79 17.88a1.972 1.972 0 00-.113 1.635l14.645 34.845-12.797 8.468a2.935 2.935 0 001.096 5.336l36.084 6.4 33.039-7.813c.236-.055.45-.183.611-.364l13.45-15.1a2.623 2.623 0 00-1.954-4.368zm-5.918 0h-8.103l.11-30.455 12.634-6.634-4.641 37.089zm-.327-49.858a7.187 7.187 0 003.341-.152 6.682 6.682 0 00-.038 3.374 6.685 6.685 0 00-3.373.14c.287-1.1.311-2.252.07-3.362zm-9.068-2.997a.146.146 0 01.108-.045.144.144 0 01.104.041l6.31 6.38a7.228 7.228 0 01-.819 1.59 1.287 1.287 0 00.135 1.614 1.304 1.304 0 001.685.173c.483-.35 1-.652 1.542-.902l4.473 4.503-13.308 6.988a.152.152 0 01-.15-.006l-11.35-7.075-.111-1.743 11.38-11.518zm-.965 22.46l-.11 30.395h-7.661l-2.347-36.689 9.91 6.179a2.5 2.5 0 00.208.114zM62.635 9.753l3.356 52.453-16.694-15.184 4.636-17.797 8.702-19.472zm-23.523 21.09l11.978-.094-8.806 33.795-3.172-33.7zM51.947 79.14l-1.702 5.68-15.4 1.232.512-3.489a1.92 1.92 0 00.134-.163l6.718-9.362 9.738 6.102zM62.304 4.639l.002.003a.046.046 0 01.002.046L55.9 19.023 43.987 5.51l18.317-.871zM42.04 6.882l12.798 14.516-3.107 6.952a.05.05 0 01-.051.028l-13.592.108a1.97 1.97 0 00-.468-.208l-.957-.276 2.016-9.158c1.2-.237 2.432-.253 3.637-.046a1.25 1.25 0 00.721-2.367 9.87 9.87 0 01-3.224-2.298l2.227-7.25zm-9.346 13.002c-.273-1.996-1.067-4.309-3.025-6.23 2.692-.496 4.633-1.962 5.965-3.456a9.575 9.575 0 003.1 6.22 9.595 9.595 0 00-6.04 3.466zm4.222 12.907l3.626 38.51-5.725 7.98-7.944-32.351 10.044-14.14zm-1.081-2.564l-9.709 13.665-4.349-17.71 14.058 4.045zM19.69 27.602l4.317 17.58-12.4-2.817 8.083-14.763zm-7.929 17.226l12.878 2.925 8.009 32.616-6.97-2.435L11.76 44.828zm19.563 48.885l-19.137-3.447a.568.568 0 01-.21-1.031l13.43-8.887 7.5 2.62-1.583 10.745zm15.425 2.779l-13.094-2.359.836-5.677 15.026-1.202-2.768 9.238zm18.916-4.14L49.301 96.22l5.012-16.728 12.25-5.137-.898 17.997zM53.448 77.289L43.1 70.804l5.522-21.195L66.21 65.604l.395 6.166-13.156 5.519zm26.535 11.678l-11.92 2.818.512-10.255 17.052 1.1-5.644 6.337zm13.201-14.822l-5.56 6.242-18.93-1.222.271-5.446h24.033a.234.234 0 01.228.15.239.239 0 01-.042.276z" fill="url(#paint12_linear)"/><defs><linearGradient id="paint0_linear" x1="77.933" y1="1.973" x2="77.933" y2="6.395" gradientUnits="userSpaceOnUse"><stop stop-color="#D7B273"/><stop offset=".417" stop-color="#B48E4D"/><stop offset="1" stop-color="#584018"/></linearGradient><linearGradient id="paint1_linear" x1="76.34" y1="7.917" x2="76.34" y2="12.307" gradientUnits="userSpaceOnUse"><stop stop-color="#D7B273"/><stop offset=".417" stop-color="#B48E4D"/><stop offset="1" stop-color="#584018"/></linearGradient><linearGradient id="paint2_linear" x1="80.103" y1="6.485" x2="80.103" y2="9.398" gradientUnits="userSpaceOnUse"><stop stop-color="#D7B273"/><stop offset=".417" stop-color="#B48E4D"/><stop offset="1" stop-color="#584018"/></linearGradient><linearGradient id="paint3_linear" x1="74.173" y1="4.884" x2="74.173" y2="7.792" gradientUnits="userSpaceOnUse"><stop stop-color="#D7B273"/><stop offset=".417" stop-color="#B48E4D"/><stop offset="1" stop-color="#584018"/></linearGradient><linearGradient id="paint4_linear" x1="11.338" y1="67.368" x2="11.338" y2="71.759" gradientUnits="userSpaceOnUse"><stop stop-color="#D7B273"/><stop offset=".417" stop-color="#B48E4D"/><stop offset="1" stop-color="#584018"/></linearGradient><linearGradient id="paint5_linear" x1="9.738" y1="73.317" x2="9.738" y2="77.708" gradientUnits="userSpaceOnUse"><stop stop-color="#D7B273"/><stop offset=".417" stop-color="#B48E4D"/><stop offset="1" stop-color="#584018"/></linearGradient><linearGradient id="paint6_linear" x1="13.505" y1="71.881" x2="13.505" y2="74.794" gradientUnits="userSpaceOnUse"><stop stop-color="#D7B273"/><stop offset=".417" stop-color="#B48E4D"/><stop offset="1" stop-color="#584018"/></linearGradient><linearGradient id="paint7_linear" x1="7.572" y1="70.278" x2="7.572" y2="73.191" gradientUnits="userSpaceOnUse"><stop stop-color="#D7B273"/><stop offset=".417" stop-color="#B48E4D"/><stop offset="1" stop-color="#584018"/></linearGradient><linearGradient id="paint8_linear" x1="12.409" y1="6.766" x2="12.409" y2="11.183" gradientUnits="userSpaceOnUse"><stop stop-color="#D7B273"/><stop offset=".417" stop-color="#B48E4D"/><stop offset="1" stop-color="#584018"/></linearGradient><linearGradient id="paint9_linear" x1="10.811" y1="12.723" x2="10.811" y2="17.113" gradientUnits="userSpaceOnUse"><stop stop-color="#D7B273"/><stop offset=".417" stop-color="#B48E4D"/><stop offset="1" stop-color="#584018"/></linearGradient><linearGradient id="paint10_linear" x1="14.578" y1="11.289" x2="14.578" y2="14.208" gradientUnits="userSpaceOnUse"><stop stop-color="#D7B273"/><stop offset=".417" stop-color="#B48E4D"/><stop offset="1" stop-color="#584018"/></linearGradient><linearGradient id="paint11_linear" x1="8.663" y1="9.696" x2="8.663" y2="12.601" gradientUnits="userSpaceOnUse"><stop stop-color="#D7B273"/><stop offset=".417" stop-color="#B48E4D"/><stop offset="1" stop-color="#584018"/></linearGradient><linearGradient id="paint12_linear" x1="52.157" y1="2.263" x2="52.157" y2="98.996" gradientUnits="userSpaceOnUse"><stop stop-color="#D7B273"/><stop offset=".417" stop-color="#B48E4D"/><stop offset="1" stop-color="#584018"/></linearGradient></defs></svg>