<svg width="96" height="96" fill="none" xmlns="http://www.w3.org/2000/svg"><path d="M94.23 38.012l-9.91-1.1a37.628 37.628 0 00-2.8-6.75l6.228-7.784a2 2 0 00-.148-2.662L76.284 8.412a2 2 0 00-2.662-.148l-7.784 6.226a37.613 37.613 0 00-6.75-2.8l-1.1-9.91A2 2 0 0056 0H40a2 2 0 00-1.988 1.78l-1.1 9.9a37.628 37.628 0 00-6.75 2.8l-7.784-6.228a2 2 0 00-2.662.148L8.4 19.716a2 2 0 00-.146 2.662l6.236 7.784a37.613 37.613 0 00-2.8 6.75l-9.91 1.1A2 2 0 000 40v16a2 2 0 001.78 1.988l9.9 1.1a37.628 37.628 0 002.8 6.75l-6.228 7.784a2 2 0 00.148 2.662L19.716 87.6a2 2 0 002.662.136l7.784-6.226a37.613 37.613 0 006.75 2.8l1.1 9.91A2 2 0 0040 96h16a2 2 0 001.988-1.77l1.1-9.91a37.628 37.628 0 006.75-2.8l7.784 6.228a2 2 0 002.662-.148l11.304-11.316a2 2 0 00.148-2.662l-6.226-7.784a37.613 37.613 0 002.8-6.75l9.91-1.1A2 2 0 0096 56V40a2 2 0 00-1.77-1.988zM92 54.21l-9.454 1.052a2 2 0 00-1.712 1.474 33.797 33.797 0 01-3.434 8.3 2 2 0 00.168 2.254l5.946 7.432-8.782 8.782-7.432-5.946a2 2 0 00-2.254-.168 33.805 33.805 0 01-8.3 3.434 2 2 0 00-1.474 1.712L54.22 92H41.8l-1.062-9.464a2 2 0 00-1.474-1.712 33.8 33.8 0 01-8.3-3.434 2 2 0 00-2.254.168l-7.432 5.946-8.782-8.782 5.946-7.422a2 2 0 00.168-2.254 33.803 33.803 0 01-3.434-8.3 2 2 0 00-1.712-1.474L4 54.22V41.8l9.464-1.062a2 2 0 001.712-1.474 33.797 33.797 0 013.434-8.3 2 2 0 00-.168-2.254l-5.946-7.432 8.782-8.782 7.442 5.946a2 2 0 002.254.168 33.8 33.8 0 018.3-3.434 2 2 0 001.474-1.712L41.8 4h12.41l1.053 9.464a2 2 0 001.474 1.712 33.793 33.793 0 018.3 3.434 2 2 0 002.253-.168l7.432-5.946 8.782 8.792-5.946 7.432a2 2 0 00-.168 2.254 33.808 33.808 0 013.434 8.3 2 2 0 001.713 1.474L92 41.8v12.41z" fill="url(#paint0_linear)"/><path d="M72.431 34.328c-7.55-13.495-24.612-18.314-38.107-10.763-13.495 7.55-18.314 24.612-10.763 38.107a2 2 0 003.158.438l13.066-13.066 4.616 6.156a1.998 1.998 0 003.014.214l12.586-12.586V50h4V38a2 2 0 00-2-2h-12v4h7.172L46.217 50.956 41.601 44.8a2 2 0 00-1.458-.8 2.036 2.036 0 00-1.556.586L25.871 57.3a23.954 23.954 0 013.557-24.463c8.386-10.232 23.479-11.729 33.71-3.343 10.233 8.386 11.73 23.479 3.344 33.711a24.158 24.158 0 01-2.48 2.605V54h-4v14.732a23.852 23.852 0 01-4 1.854V58h-4v13.631c-1.322.226-2.66.341-4 .344V64h-4v7.65a23.829 23.829 0 01-4-1.028V60h-4v8.781a24.148 24.148 0 01-3.231-2.233l-2.542 3.09A28.042 28.042 0 0048.001 76c4.786 0 9.491-1.228 13.667-3.565 13.495-7.55 18.314-24.612 10.763-38.107z" fill="url(#paint1_linear)"/><defs><linearGradient id="paint0_linear" x1="48" y1="0" x2="48" y2="96" gradientUnits="userSpaceOnUse"><stop stop-color="#D7B273"/><stop offset=".417" stop-color="#B48E4D"/><stop offset="1" stop-color="#584018"/></linearGradient><linearGradient id="paint1_linear" x1="47.996" y1="19.995" x2="47.996" y2="76" gradientUnits="userSpaceOnUse"><stop stop-color="#D7B273"/><stop offset=".417" stop-color="#B48E4D"/><stop offset="1" stop-color="#584018"/></linearGradient></defs></svg>