<svg width="90" height="92" fill="none" xmlns="http://www.w3.org/2000/svg"><path d="M32.747 58.661L19.296 77.114 5.844 58.661h26.903z" stroke="url(#paint0_linear)" stroke-width="3"/><path d="M35.005 57.801l-5.819-6.62H9.24L3.422 57.8" stroke="url(#paint1_linear)" stroke-width="3"/><path d="M19.294 76.224l-.08-17.163" stroke="url(#paint2_linear)" stroke-width="3"/><path d="M19.213 58.574l-9.72-7.427" stroke="url(#paint3_linear)" stroke-width="3"/><path d="M20.164 58.195l8.946-7.048" stroke="url(#paint4_linear)" stroke-width="3"/><path d="M34.844 77.938v5.293a6.694 6.694 0 006.697 6.692 6.694 6.694 0 006.697-6.692V38.864" stroke="url(#paint5_linear)" stroke-width="3"/><path d="M87.8 42.95v-1.263c0-21.832-17.712-39.531-39.561-39.531-21.848 0-39.56 17.699-39.56 39.53v1.264" stroke="url(#paint6_linear)" stroke-width="3"/><path d="M28.459 42.95v-.316c0-5.458-4.428-9.883-9.89-9.883-5.462 0-9.89 4.425-9.89 9.883v.316" stroke="url(#paint7_linear)" stroke-width="3"/><path d="M48.237 42.95v-.316c0-5.458-4.428-9.883-9.89-9.883-5.462 0-9.89 4.425-9.89 9.883v.316" stroke="url(#paint8_linear)" stroke-width="3"/><path d="M68.02 42.95v-.316c0-5.458-4.428-9.883-9.89-9.883-5.463 0-9.89 4.425-9.89 9.883v.316" stroke="url(#paint9_linear)" stroke-width="3"/><path d="M87.8 42.95v-.316c0-5.458-4.428-9.883-9.89-9.883-5.462 0-9.89 4.425-9.89 9.883v.316" stroke="url(#paint10_linear)" stroke-width="3"/><path d="M74.002 77.164c7.91 0 14.323-6.408 14.323-14.312 0-7.904-6.413-14.312-14.323-14.312S59.68 54.948 59.68 62.852c0 7.904 6.412 14.312 14.322 14.312z" stroke="url(#paint11_linear)" stroke-width="3"/><path d="M79.32 71.363c1.028-1.01 1.543-2.294 1.543-3.856 0-.856-.143-1.608-.429-2.256a3.946 3.946 0 00-1.343-1.628c-.61-.456-1.172-.809-1.686-1.056a24.937 24.937 0 00-2.087-.857l-1.8-.685c-.972-.4-1.677-.828-2.115-1.285-.438-.457-.657-1.048-.657-1.771 0-.78.247-1.418.743-1.913.514-.514 1.19-.829 2.029-.943 0 0 .596-.072.942-.073.346 0 .858.102.858.102 1.391.266 2.363 1.094 2.915 2.484l2.23-1.256c-.496-1.104-1.191-1.98-2.087-2.628a6.628 6.628 0 00-3.058-1.2v-2.54h-1.8v2.512c-1.543.153-2.83.714-3.858 1.685-1.03.971-1.544 2.228-1.544 3.77 0 .838.134 1.58.4 2.227a4.169 4.169 0 001.286 1.6c.572.438 1.115.79 1.63 1.056a25.04 25.04 0 002.086.829l1.8.656c.991.42 1.715.867 2.172 1.343.477.457.715 1.075.715 1.856 0 .78-.257 1.447-.772 1.999-.495.533-1.2.866-2.115 1 0 0-.366.046-.775.057-.409.01-1.025 0-1.025 0-2.077-.229-3.44-1.228-4.087-2.999l-2.287 1.314c.496 1.256 1.287 2.256 2.373 2.998 1.105.743 2.438 1.171 4 1.285v2.514h1.801v-2.542c1.639-.19 2.973-.79 4.002-1.8z" fill="url(#paint12_linear)"/><path d="M74.527 50v25.702" stroke="url(#paint13_linear)" stroke-width="3"/><defs><linearGradient id="paint0_linear" x1="19.296" y1="58.661" x2="19.296" y2="77.114" gradientUnits="userSpaceOnUse"><stop stop-color="#D7B273"/><stop offset=".417" stop-color="#B48E4D"/><stop offset="1" stop-color="#584018"/></linearGradient><linearGradient id="paint1_linear" x1="19.213" y1="51.18" x2="19.213" y2="57.801" gradientUnits="userSpaceOnUse"><stop stop-color="#D7B273"/><stop offset=".417" stop-color="#B48E4D"/><stop offset="1" stop-color="#584018"/></linearGradient><linearGradient id="paint2_linear" x1="19.255" y1="59.062" x2="19.255" y2="76.224" gradientUnits="userSpaceOnUse"><stop stop-color="#D7B273"/><stop offset=".417" stop-color="#B48E4D"/><stop offset="1" stop-color="#584018"/></linearGradient><linearGradient id="paint3_linear" x1="14.353" y1="51.147" x2="14.353" y2="58.574" gradientUnits="userSpaceOnUse"><stop stop-color="#D7B273"/><stop offset=".417" stop-color="#B48E4D"/><stop offset="1" stop-color="#584018"/></linearGradient><linearGradient id="paint4_linear" x1="24.637" y1="51.147" x2="24.637" y2="58.195" gradientUnits="userSpaceOnUse"><stop stop-color="#D7B273"/><stop offset=".417" stop-color="#B48E4D"/><stop offset="1" stop-color="#584018"/></linearGradient><linearGradient id="paint5_linear" x1="41.541" y1="38.864" x2="41.541" y2="89.923" gradientUnits="userSpaceOnUse"><stop stop-color="#D7B273"/><stop offset=".417" stop-color="#B48E4D"/><stop offset="1" stop-color="#584018"/></linearGradient><linearGradient id="paint6_linear" x1="48.239" y1="2.156" x2="48.239" y2="42.95" gradientUnits="userSpaceOnUse"><stop stop-color="#D7B273"/><stop offset=".417" stop-color="#B48E4D"/><stop offset="1" stop-color="#584018"/></linearGradient><linearGradient id="paint7_linear" x1="18.569" y1="32.752" x2="18.569" y2="42.95" gradientUnits="userSpaceOnUse"><stop stop-color="#D7B273"/><stop offset=".417" stop-color="#B48E4D"/><stop offset="1" stop-color="#584018"/></linearGradient><linearGradient id="paint8_linear" x1="38.347" y1="32.752" x2="38.347" y2="42.95" gradientUnits="userSpaceOnUse"><stop stop-color="#D7B273"/><stop offset=".417" stop-color="#B48E4D"/><stop offset="1" stop-color="#584018"/></linearGradient><linearGradient id="paint9_linear" x1="58.129" y1="32.752" x2="58.129" y2="42.95" gradientUnits="userSpaceOnUse"><stop stop-color="#D7B273"/><stop offset=".417" stop-color="#B48E4D"/><stop offset="1" stop-color="#584018"/></linearGradient><linearGradient id="paint10_linear" x1="77.91" y1="32.752" x2="77.91" y2="42.95" gradientUnits="userSpaceOnUse"><stop stop-color="#D7B273"/><stop offset=".417" stop-color="#B48E4D"/><stop offset="1" stop-color="#584018"/></linearGradient><linearGradient id="paint11_linear" x1="74.002" y1="48.54" x2="74.002" y2="77.164" gradientUnits="userSpaceOnUse"><stop stop-color="#D7B273"/><stop offset=".417" stop-color="#B48E4D"/><stop offset="1" stop-color="#584018"/></linearGradient><linearGradient id="paint12_linear" x1="74.004" y1="50.001" x2="74.004" y2="75.704" gradientUnits="userSpaceOnUse"><stop stop-color="#D7B273"/><stop offset=".417" stop-color="#B48E4D"/><stop offset="1" stop-color="#584018"/></linearGradient><linearGradient id="paint13_linear" x1="75.027" y1="50.001" x2="75.027" y2="75.702" gradientUnits="userSpaceOnUse"><stop stop-color="#D7B273"/><stop offset=".417" stop-color="#B48E4D"/><stop offset="1" stop-color="#584018"/></linearGradient></defs></svg>