<svg width="96" height="96" fill="none" xmlns="http://www.w3.org/2000/svg"><g opacity=".96"><path d="M33 18a12 12 0 1012 12 12.013 12.013 0 00-12-12zm0 21a9 9 0 119-9 9.01 9.01 0 01-9 9z" fill="url(#paint0_linear)"/><path d="M69 15a12 12 0 10-12 12 12.013 12.013 0 0012-12zm-21 0a9 9 0 119 9 9.01 9.01 0 01-9-9z" fill="url(#paint1_linear)"/><path d="M12.946 54.64l-.756-11.346A4.6 4.6 0 003 43.6V63c0 .233.054.463.158.67L10.5 78.355V84A1.5 1.5 0 009 85.5v6a1.5 1.5 0 001.5 1.5h21a1.5 1.5 0 001.5-1.5v-6a1.5 1.5 0 00-1.5-1.5V69a1.5 1.5 0 00-.44-1.06l-12-12a5.75 5.75 0 00-6.114-1.3zM30 90H12v-3h18v3zm-1.5-6h-15v-6a1.5 1.5 0 00-.158-.67L6 62.645V43.6a1.6 1.6 0 013.196-.107l.901 13.52a5.752 5.752 0 00.842 7.05l7.5 7.5a1.5 1.5 0 102.122-2.122l-7.5-7.5a2.742 2.742 0 113.878-3.879L28.5 69.622V84z" fill="url(#paint2_linear)"/><path d="M93 43.6a4.6 4.6 0 00-9.19-.306l-.756 11.345a5.749 5.749 0 00-6.115 1.3l-12 12A1.499 1.499 0 0064.5 69v15a1.5 1.5 0 00-1.5 1.5v6a1.5 1.5 0 001.5 1.5h21a1.5 1.5 0 001.5-1.5v-6a1.5 1.5 0 00-1.5-1.5v-5.646l7.342-14.683A1.5 1.5 0 0093 63V43.6zM84 90H66v-3h18v3zm6-27.354l-7.342 14.683A1.5 1.5 0 0082.5 78v6h-15V69.621l11.56-11.56a2.744 2.744 0 014.49.88 2.742 2.742 0 01-.61 2.998l-7.5 7.5a1.501 1.501 0 002.12 2.122l7.5-7.5a5.746 5.746 0 00.843-7.053l.9-13.515A1.6 1.6 0 0190 43.6v19.046z" fill="url(#paint3_linear)"/><path d="M41.393 48.57c-5.794-4.925-14.276-3.609-14.635-3.55A1.5 1.5 0 0025.5 46.5c0 5.02 1.57 9.014 4.664 11.87 4.539 4.192 11.029 4.664 13.722 4.664l.257-.001C46.506 66.18 48 70.136 48 73.5v18a1.5 1.5 0 103 0v-27c0-5.56 1.87-10.25 5.56-13.94l2.567-2.566c6.791-.118 12.03-2.16 15.576-6.077 5.6-6.184 4.825-14.706 4.79-15.065A1.5 1.5 0 0078 25.5c-7.754 0-13.519 2.17-17.133 6.45-4.358 5.161-4.166 11.746-3.946 14.007L54.44 48.44c-3.976 3.976-6.182 9.147-6.417 15.009a23.29 23.29 0 00-1.528-2.285c-.068-5.533-1.78-9.77-5.1-12.594zM63.16 33.885c2.798-3.313 7.295-5.112 13.38-5.356-.043 2.426-.585 7.553-4.077 11.394-2.388 2.627-5.775 4.24-10.087 4.825l6.187-6.188a1.5 1.5 0 00-2.121-2.121l-6.584 6.584c.122-2.556.802-6.177 3.302-9.138zm-34.612 13.97c2.345-.137 7.359-.013 10.903 3 1.875 1.594 3.103 3.824 3.675 6.648l-3.064-3.064a1.5 1.5 0 10-2.121 2.12l3.312 3.314c-2.696-.315-6.358-1.22-9.053-3.707-2.18-2.013-3.406-4.804-3.652-8.311z" fill="url(#paint4_linear)"/><path d="M35.212 34.636c.525-.55.788-1.25.788-2.1 0-.467-.073-.877-.219-1.23a2.124 2.124 0 00-.685-.886 5.257 5.257 0 00-.86-.576c-.263-.134-.618-.29-1.065-.466l-.919-.374c-.496-.217-.856-.45-1.08-.7-.223-.248-.335-.57-.335-.964 0-.425.127-.773.38-1.042.262-.28.607-.451 1.035-.514 0 0 .304-.04.48-.04.177 0 .439.056.439.056.71.145 1.205.596 1.487 1.353l1.138-.684c-.253-.602-.608-1.079-1.065-1.431a3.262 3.262 0 00-1.56-.654V23h-.919v1.369c-.787.083-1.444.389-1.969.918-.525.529-.787 1.213-.787 2.053 0 .456.068.86.204 1.213.146.343.365.633.656.871.292.239.569.43.831.576.273.135.628.285 1.065.451l.919.358c.505.228.875.472 1.108.731.243.249.365.586.365 1.011a1.6 1.6 0 01-.394 1.089c-.253.29-.612.472-1.08.544 0 0-.186.026-.395.032-.208.005-.523 0-.523 0-1.06-.125-1.755-.67-2.085-1.634L29 33.298c.253.684.656 1.229 1.21 1.633.564.405 1.245.638 2.042.7V37h.919v-1.385c.836-.103 1.517-.43 2.041-.98z" fill="url(#paint5_linear)"/><path d="M33 23v14" stroke="url(#paint6_linear)"/><path d="M59.212 19.636c.525-.55.788-1.25.788-2.1 0-.467-.073-.877-.219-1.23a2.124 2.124 0 00-.685-.886 5.257 5.257 0 00-.86-.576c-.263-.134-.618-.29-1.065-.466l-.919-.374c-.496-.217-.855-.45-1.08-.7-.223-.248-.334-.57-.334-.964 0-.425.126-.773.379-1.042.262-.28.607-.451 1.035-.514 0 0 .304-.04.48-.04.177 0 .439.056.439.056.71.145 1.205.596 1.487 1.353l1.138-.684c-.253-.602-.608-1.079-1.065-1.431a3.262 3.262 0 00-1.56-.654V8h-.919v1.369c-.787.083-1.444.389-1.969.918-.525.529-.787 1.213-.787 2.053 0 .456.068.86.204 1.213.146.343.365.633.656.871.292.239.569.43.831.576.273.135.628.285 1.065.451l.919.358c.505.228.875.472 1.108.731.243.249.365.586.365 1.011a1.6 1.6 0 01-.394 1.089c-.253.29-.612.472-1.08.544 0 0-.186.025-.395.031-.208.006-.523 0-.523 0-1.06-.124-1.755-.668-2.085-1.633L53 18.298c.253.684.656 1.229 1.21 1.633.564.404 1.245.638 2.042.7V22h.919v-1.384c.836-.104 1.517-.43 2.041-.98z" fill="url(#paint7_linear)"/><path d="M57 8v14" stroke="url(#paint8_linear)"/></g><defs><linearGradient id="paint0_linear" x1="33" y1="18" x2="33" y2="42" gradientUnits="userSpaceOnUse"><stop stop-color="#D7B273"/><stop offset=".417" stop-color="#B48E4D"/><stop offset="1" stop-color="#584018"/></linearGradient><linearGradient id="paint1_linear" x1="57" y1="3" x2="57" y2="27" gradientUnits="userSpaceOnUse"><stop stop-color="#D7B273"/><stop offset=".417" stop-color="#B48E4D"/><stop offset="1" stop-color="#584018"/></linearGradient><linearGradient id="paint2_linear" x1="18" y1="39.002" x2="18" y2="93" gradientUnits="userSpaceOnUse"><stop stop-color="#D7B273"/><stop offset=".417" stop-color="#B48E4D"/><stop offset="1" stop-color="#584018"/></linearGradient><linearGradient id="paint3_linear" x1="78" y1="38.999" x2="78" y2="93" gradientUnits="userSpaceOnUse"><stop stop-color="#D7B273"/><stop offset=".417" stop-color="#B48E4D"/><stop offset="1" stop-color="#584018"/></linearGradient><linearGradient id="paint4_linear" x1="52.524" y1="25.5" x2="52.524" y2="93" gradientUnits="userSpaceOnUse"><stop stop-color="#D7B273"/><stop offset=".417" stop-color="#B48E4D"/><stop offset="1" stop-color="#584018"/></linearGradient><linearGradient id="paint5_linear" x1="32.5" y1="23" x2="32.5" y2="37" gradientUnits="userSpaceOnUse"><stop stop-color="#D7B273"/><stop offset=".417" stop-color="#B48E4D"/><stop offset="1" stop-color="#584018"/></linearGradient><linearGradient id="paint6_linear" x1="33.5" y1="23" x2="33.5" y2="37" gradientUnits="userSpaceOnUse"><stop stop-color="#D7B273"/><stop offset=".417" stop-color="#B48E4D"/><stop offset="1" stop-color="#584018"/></linearGradient><linearGradient id="paint7_linear" x1="56.5" y1="8" x2="56.5" y2="22" gradientUnits="userSpaceOnUse"><stop stop-color="#D7B273"/><stop offset=".417" stop-color="#B48E4D"/><stop offset="1" stop-color="#584018"/></linearGradient><linearGradient id="paint8_linear" x1="57.5" y1="8" x2="57.5" y2="22" gradientUnits="userSpaceOnUse"><stop stop-color="#D7B273"/><stop offset=".417" stop-color="#B48E4D"/><stop offset="1" stop-color="#584018"/></linearGradient></defs></svg>