<svg width="90" height="95" fill="none" xmlns="http://www.w3.org/2000/svg"><path d="M44.846 67.072c11.745 0 21.265-9.52 21.265-21.265 0-11.744-9.52-21.264-21.265-21.264-11.743 0-21.264 9.52-21.264 21.264s9.52 21.265 21.264 21.265z" stroke="url(#paint0_linear)" stroke-width="3"/><path d="M51.115 55.854c1.214-1.192 1.82-2.709 1.82-4.552 0-1.01-.168-1.899-.505-2.663-.337-.764-.865-1.405-1.584-1.922-.72-.539-1.382-.955-1.99-1.247-.606-.292-1.427-.63-2.46-1.011l-2.124-.81c-1.146-.471-1.978-.977-2.495-1.516-.517-.54-.775-1.236-.775-2.09 0-.922.292-1.675.876-2.26.607-.606 1.405-.977 2.394-1.112 0 0 .703-.085 1.11-.086.409 0 1.014.12 1.014.12 1.64.315 2.787 1.292 3.438 2.933l2.63-1.483c-.584-1.304-1.405-2.338-2.461-3.102-1.056-.764-2.259-1.236-3.607-1.416v-3h-2.124v2.966c-1.82.18-3.338.843-4.551 1.99-1.214 1.146-1.82 2.629-1.82 4.45 0 .988.156 1.865.471 2.63a4.92 4.92 0 001.517 1.887 13.06 13.06 0 001.922 1.247c.63.292 1.45.618 2.46.978l2.125.775c1.168.495 2.022 1.023 2.562 1.585.562.54.843 1.27.843 2.191 0 .922-.304 1.708-.91 2.36-.585.63-1.416 1.023-2.495 1.18 0 0-.432.054-.915.067-.482.013-1.21 0-1.21 0-2.449-.27-4.056-1.45-4.82-3.54l-2.697 1.551c.584 1.484 1.517 2.664 2.798 3.54 1.304.877 2.877 1.382 4.72 1.517v2.967h2.124v-3c1.932-.225 3.506-.933 4.72-2.124z" fill="url(#paint1_linear)"/><path d="M45.65 30.637v30.34" stroke="url(#paint2_linear)" stroke-width="3"/><path d="M74.79 16.865a1.5 1.5 0 001.488-1.513l-.114-13.5a1.5 1.5 0 10-3 .026l.101 12-12 .1a1.5 1.5 0 00.026 3l13.5-.113zM19.24 78.65a1.5 1.5 0 00-1.263 1.704l1.988 13.353a1.5 1.5 0 102.967-.442l-1.767-11.869 11.87-1.767a1.5 1.5 0 10-.442-2.967L19.239 78.65zm66.8-32.842c0 22.75-18.442 41.191-41.191 41.191v3C69.254 90 89.04 70.214 89.04 45.808h-3zm-82.383 0c0-22.75 18.442-41.192 41.192-41.192v-3C20.442 1.616.656 21.401.656 45.808h3zM44.848 4.616c11.25 0 21.443 4.507 28.878 11.818l2.104-2.139C67.856 6.455 56.916 1.616 44.848 1.616v3zM13.453 72.475a41.022 41.022 0 01-9.797-26.667h-3a44.022 44.022 0 0010.511 28.61l2.286-1.943zm31.395 14.524a40.99 40.99 0 01-24.495-8.071l-1.786 2.41A44 44 0 0044.847 90v-3zm34.517-63.68a40.992 40.992 0 016.675 22.489h3c0-8.9-2.633-17.19-7.163-24.129l-2.512 1.64z" fill="url(#paint3_linear)"/><defs><linearGradient id="paint0_linear" x1="44.846" y1="24.543" x2="44.846" y2="67.072" gradientUnits="userSpaceOnUse"><stop stop-color="#D7B273"/><stop offset=".417" stop-color="#B48E4D"/><stop offset="1" stop-color="#584018"/></linearGradient><linearGradient id="paint1_linear" x1="44.845" y1="30.637" x2="44.845" y2="60.978" gradientUnits="userSpaceOnUse"><stop stop-color="#D7B273"/><stop offset=".417" stop-color="#B48E4D"/><stop offset="1" stop-color="#584018"/></linearGradient><linearGradient id="paint2_linear" x1="46.149" y1="30.637" x2="46.149" y2="60.977" gradientUnits="userSpaceOnUse"><stop stop-color="#D7B273"/><stop offset=".417" stop-color="#B48E4D"/><stop offset="1" stop-color="#584018"/></linearGradient><linearGradient id="paint3_linear" x1="44.848" y1=".365" x2="44.848" y2="94.986" gradientUnits="userSpaceOnUse"><stop stop-color="#D7B273"/><stop offset=".417" stop-color="#B48E4D"/><stop offset="1" stop-color="#584018"/></linearGradient></defs></svg>