<svg width="130" height="102" fill="none" xmlns="http://www.w3.org/2000/svg"><path d="M32.94 19.32h-2.8V23H28.7v-3.68h-7.9v-1.04L28.22 9h1.6l-7.16 9.04h6.08V14.8h1.4v3.24h2.8v1.28zm6.903 3.8c-1.08 0-2.047-.287-2.9-.86-.84-.573-1.5-1.393-1.98-2.46-.467-1.08-.7-2.347-.7-3.8 0-1.453.233-2.713.7-3.78.48-1.08 1.14-1.907 1.98-2.48.853-.573 1.82-.86 2.9-.86 1.08 0 2.04.287 2.88.86.853.573 1.52 1.4 2 2.48.48 1.067.72 2.327.72 3.78 0 1.453-.24 2.72-.72 3.8-.48 1.067-1.147 1.887-2 2.46-.84.573-1.8.86-2.88.86zm0-1.32c.813 0 1.526-.227 2.14-.68.626-.453 1.113-1.113 1.46-1.98.346-.867.52-1.913.52-3.14s-.174-2.273-.52-3.14c-.347-.867-.834-1.527-1.46-1.98-.614-.453-1.327-.68-2.14-.68-.814 0-1.534.227-2.16.68-.614.453-1.094 1.113-1.44 1.98-.347.867-.52 1.913-.52 3.14s.173 2.273.52 3.14c.346.867.826 1.527 1.44 1.98.626.453 1.346.68 2.16.68zm6.622-4.74h10v1.02h-10v-1.02zM61.385 9v14h-1.44V10.28h-3.3V9h4.74zm8.926 14.12c-1.08 0-2.046-.287-2.9-.86-.84-.573-1.5-1.393-1.98-2.46-.466-1.08-.7-2.347-.7-3.8 0-1.453.234-2.713.7-3.78.48-1.08 1.14-1.907 1.98-2.48.854-.573 1.82-.86 2.9-.86 1.08 0 2.04.287 2.88.86.854.573 1.52 1.4 2 2.48.48 1.067.72 2.327.72 3.78 0 1.453-.24 2.72-.72 3.8-.48 1.067-1.146 1.887-2 2.46-.84.573-1.8.86-2.88.86zm0-1.32c.814 0 1.527-.227 2.14-.68.627-.453 1.114-1.113 1.46-1.98.347-.867.52-1.913.52-3.14s-.173-2.273-.52-3.14c-.346-.867-.833-1.527-1.46-1.98-.613-.453-1.326-.68-2.14-.68-.813 0-1.533.227-2.16.68-.613.453-1.093 1.113-1.44 1.98-.346.867-.52 1.913-.52 3.14s.174 2.273.52 3.14c.347.867.827 1.527 1.44 1.98.627.453 1.347.68 2.16.68zm13.243 1.32c-1.08 0-2.047-.287-2.9-.86-.84-.573-1.5-1.393-1.98-2.46-.467-1.08-.7-2.347-.7-3.8 0-1.453.233-2.713.7-3.78.48-1.08 1.14-1.907 1.98-2.48.853-.573 1.82-.86 2.9-.86 1.08 0 2.04.287 2.88.86.853.573 1.52 1.4 2 2.48.48 1.067.72 2.327.72 3.78 0 1.453-.24 2.72-.72 3.8-.48 1.067-1.147 1.887-2 2.46-.84.573-1.8.86-2.88.86zm0-1.32c.813 0 1.526-.227 2.14-.68.626-.453 1.113-1.113 1.46-1.98.346-.867.52-1.913.52-3.14s-.174-2.273-.52-3.14c-.347-.867-.834-1.527-1.46-1.98-.614-.453-1.327-.68-2.14-.68-.814 0-1.534.227-2.16.68-.614.453-1.094 1.113-1.44 1.98-.347.867-.52 1.913-.52 3.14s.173 2.273.52 3.14c.346.867.826 1.527 1.44 1.98.626.453 1.346.68 2.16.68zm10.622-5.3c-.947 0-1.714-.347-2.3-1.04-.574-.707-.86-1.627-.86-2.76 0-1.133.286-2.047.86-2.74.586-.707 1.353-1.06 2.3-1.06.933 0 1.693.347 2.28 1.04.586.693.88 1.613.88 2.76 0 1.147-.294 2.067-.88 2.76-.587.693-1.347 1.04-2.28 1.04zm8.48-7.5h1.18l-9.56 14h-1.18l9.56-14zm-8.48 6.6c.653 0 1.173-.253 1.56-.76.4-.52.6-1.233.6-2.14s-.2-1.613-.6-2.12c-.387-.52-.907-.78-1.56-.78-.667 0-1.194.26-1.58.78-.387.52-.58 1.227-.58 2.12s.193 1.6.58 2.12c.386.52.913.78 1.58.78zm8.58 7.5c-.934 0-1.694-.347-2.28-1.04-.587-.707-.88-1.627-.88-2.76 0-1.133.293-2.047.88-2.74.586-.707 1.346-1.06 2.28-1.06.946 0 1.706.353 2.28 1.06.586.693.88 1.607.88 2.74 0 1.133-.294 2.053-.88 2.76-.574.693-1.334 1.04-2.28 1.04zm0-.9c.666 0 1.193-.26 1.58-.78.386-.52.58-1.227.58-2.12s-.194-1.6-.58-2.12c-.387-.52-.914-.78-1.58-.78-.654 0-1.18.26-1.58.78-.387.507-.58 1.213-.58 2.12s.193 1.62.58 2.14c.4.507.926.76 1.58.76z" fill="url(#paint0_linear)"/><path d="M86.508 34.416H5.353a3.403 3.403 0 00-3.396 3.412v56.966a3.403 3.403 0 003.396 3.412h81.155a3.404 3.404 0 003.396-3.412V37.828a3.404 3.404 0 00-3.396-3.412z" stroke="url(#paint1_linear)" stroke-width="3"/><path d="M1.907 49.84h85.839" stroke="url(#paint2_linear)" stroke-width="3"/><path d="M1.907 72.227h85.839" stroke="url(#paint3_linear)" stroke-width="3"/><path d="M23.816 50.202v46.973" stroke="url(#paint4_linear)" stroke-width="3"/><path d="M23.816 25.615v16.147" stroke="url(#paint5_linear)" stroke-width="3"/><path d="M68.746 25.615v16.147" stroke="url(#paint6_linear)" stroke-width="3"/><path d="M46.282 50.202v46.973" stroke="url(#paint7_linear)" stroke-width="3"/><path d="M68.746 50.202v46.973" stroke="url(#paint8_linear)" stroke-width="3"/><path d="M104.611 100.374c13.086 0 23.694-10.657 23.694-23.804 0-13.147-10.608-23.805-23.694-23.805-13.086 0-23.694 10.658-23.694 23.805s10.608 23.804 23.694 23.804z" fill="url(#paint9_linear)" stroke="#101820" stroke-width="3"/><path d="M105.341 61.596v15.656h13.186" stroke="#101820" stroke-width="3"/><defs><linearGradient id="paint0_linear" x1="65" y1="0" x2="65" y2="31" gradientUnits="userSpaceOnUse"><stop stop-color="#D7B273"/><stop offset=".417" stop-color="#B48E4D"/><stop offset="1" stop-color="#584018"/></linearGradient><linearGradient id="paint1_linear" x1="45.931" y1="34.416" x2="45.931" y2="98.206" gradientUnits="userSpaceOnUse"><stop stop-color="#D7B273"/><stop offset=".417" stop-color="#B48E4D"/><stop offset="1" stop-color="#584018"/></linearGradient><linearGradient id="paint2_linear" x1="44.827" y1="49.841" x2="44.827" y2="50.841" gradientUnits="userSpaceOnUse"><stop stop-color="#D7B273"/><stop offset=".417" stop-color="#B48E4D"/><stop offset="1" stop-color="#584018"/></linearGradient><linearGradient id="paint3_linear" x1="44.827" y1="72.227" x2="44.827" y2="73.227" gradientUnits="userSpaceOnUse"><stop stop-color="#D7B273"/><stop offset=".417" stop-color="#B48E4D"/><stop offset="1" stop-color="#584018"/></linearGradient><linearGradient id="paint4_linear" x1="24.316" y1="50.202" x2="24.316" y2="97.175" gradientUnits="userSpaceOnUse"><stop stop-color="#D7B273"/><stop offset=".417" stop-color="#B48E4D"/><stop offset="1" stop-color="#584018"/></linearGradient><linearGradient id="paint5_linear" x1="24.316" y1="25.615" x2="24.316" y2="41.762" gradientUnits="userSpaceOnUse"><stop stop-color="#D7B273"/><stop offset=".417" stop-color="#B48E4D"/><stop offset="1" stop-color="#584018"/></linearGradient><linearGradient id="paint6_linear" x1="69.246" y1="25.615" x2="69.246" y2="41.762" gradientUnits="userSpaceOnUse"><stop stop-color="#D7B273"/><stop offset=".417" stop-color="#B48E4D"/><stop offset="1" stop-color="#584018"/></linearGradient><linearGradient id="paint7_linear" x1="46.782" y1="50.202" x2="46.782" y2="97.175" gradientUnits="userSpaceOnUse"><stop stop-color="#D7B273"/><stop offset=".417" stop-color="#B48E4D"/><stop offset="1" stop-color="#584018"/></linearGradient><linearGradient id="paint8_linear" x1="69.246" y1="50.202" x2="69.246" y2="97.175" gradientUnits="userSpaceOnUse"><stop stop-color="#D7B273"/><stop offset=".417" stop-color="#B48E4D"/><stop offset="1" stop-color="#584018"/></linearGradient><linearGradient id="paint9_linear" x1="104.611" y1="52.765" x2="104.611" y2="100.374" gradientUnits="userSpaceOnUse"><stop stop-color="#D7B273"/><stop offset=".417" stop-color="#B48E4D"/><stop offset="1" stop-color="#584018"/></linearGradient></defs></svg>