<svg width="1920" height="607" fill="none" xmlns="http://www.w3.org/2000/svg"><path d="M962.512 187.232l-1066.508-2.676M962.375 326.985l-1065.91-2.03m1065.801 95.554l-1066.2-1.819m1066.132 63.287l-1065.719-.755m1065.693 41.472l-1065.681-1.925m1065.654 38.137l-1065.651-2.675M752.332-315l209.777 920.056M333.787-314.836l628.322 919.892M-84.662-314.669L962.022 604.923M-103.604-22.647l1065.713 627.44M-103.57 185.309L962.109 604.793M-103.547 324.956L962.109 604.793M-103.936 418.69L962.109 605.056M-103.512 481.225L962.109 605.094m-1065.624-84.325l1065.624 84.325m-.613-417.862L2028 184.556M961.657 326.985l1065.913-2.03M961.754 420.509l1066.196-1.819M961.812 481.977l1065.718-.755M961.851 522.694l1065.679-1.925M961.853 558.906l1065.647-2.675m-855.84-871.228L961.887 605.059m628.333-919.896L961.9 605.055m1046.78-919.726L961.999 604.921M2027.61-22.648L961.9 604.792m1065.68-419.48L961.899 604.796M2027.57 324.955L961.91 604.792m1066.03-186.096L961.896 605.062M2027.53 481.225L961.911 605.094m1065.619-84.325L961.907 605.094" stroke="#D7B273" stroke-opacity=".18" stroke-width="2" stroke-miterlimit="22.926"/></svg>