<svg width="140" height="45" fill="none" xmlns="http://www.w3.org/2000/svg"><path d="M37.959 0l7.422 19.177V0H37.96zm-3.385 3.65l-3.136 8.506h6.271L34.574 3.65zM8.964 0H0v7.231C1.24 3.391 4.789.502 8.965 0zm12.222 44.973V27.01l-4.708 17.963h4.708zm18.106-28.504h-9.437l-1.582 4.313h-5.128L31.189 0h-19.23c4.643.489 7.48 3.214 8.464 7.037L15.89 8.465c-.59-2.682-2.648-4.315-5.473-4.315-3.502 0-6.18 2.624-6.18 6.27 0 1.896.53 3.44 1.619 4.578 1.088 1.137 2.56 1.692 4.413 1.692 2.885 0 4.502-1.838 4.797-3.062H7.298V9.835h13.86v10.947h-4.12v-4.268c-1.147 2.713-3.65 4.403-7.21 4.403-4.59.07-8.514-2.729-9.828-7.073v10.715h8.533l4.414 17.09 4.414-17.09h8.533v20.414h3.273V24.559h16.214v-3.777h-4.507l-1.582-4.313zm-5.416 24.275H45.38v-4.082H33.876v4.082zm0-8.312H45.38v-3.645H33.876v3.645zM4.708 44.972h4.708L4.708 27.01v17.963zM55.54 10.938c-.043-2.101 1.791-3.814 3.922-3.782 2.004 0 3.212 1.04 3.605 2.564l-1.633.515c-.212-.966-.955-1.554-1.972-1.554-1.262 0-2.227.946-2.227 2.259 0 .683.192 1.239.583 1.649.392.41.922.61 1.59.61 1.039 0 1.621-.663 1.728-1.104h-2.797v-1.368h4.993v3.887h-1.484v-1.48c-.414.977-1.315 1.586-2.597 1.586-2.057.031-3.743-1.534-3.711-3.782zm11.367-3.677h2.44l2.915 7.355h-1.856l-.572-1.524H66.42l-.572 1.524h-1.855l2.914-7.355zm2.354 4.307l-1.135-3.004-1.135 3.004h2.27zm11.419 3.048V8.144l-1.696 6.472h-2.545l-1.695-6.472v6.472h-1.697V7.26h3.074l1.59 6.157 1.59-6.157h3.074v7.355h-1.694zm8.79-7.355v1.523h-4.039v1.313h3.721v1.523h-3.72v1.471h4.144v1.523h-5.842V7.26h5.736v.001zm5.97 0h2.438l2.916 7.355h-1.855l-.574-1.524H94.95l-.572 1.524h-1.856L95.44 7.26zm2.353 4.307l-1.135-3.004-1.135 3.004h2.27zm5.429-2.311c0 .536.582.799 1.558.977 1.877.347 2.682.873 2.682 2.249 0 1.292-1.145 2.237-3.022 2.237a4.331 4.331 0 01-2.088-.503c-.625-.337-1.091-.904-1.41-1.702l1.432-.892c.308 1.082 1.092 1.628 2.121 1.628.763 0 1.271-.263 1.271-.715 0-.505-.328-.756-1.642-.946-1.569-.22-2.598-.956-2.598-2.353 0-1.146 1.07-2.08 2.756-2.08 1.41 0 2.438.63 2.863 1.838l-1.379.788c-.265-.84-.742-1.208-1.537-1.208-.605-.001-1.007.293-1.007.682zm7.018 0c0 .536.583.799 1.559.977 1.876.347 2.681.873 2.681 2.249 0 1.292-1.144 2.237-3.021 2.237-.774 0-1.463-.168-2.088-.503-.625-.337-1.092-.904-1.41-1.702l1.431-.892c.309 1.082 1.092 1.628 2.121 1.628.764 0 1.272-.263 1.272-.715 0-.505-.328-.756-1.643-.946-1.568-.22-2.597-.956-2.597-2.353 0-1.146 1.07-2.08 2.756-2.08 1.41 0 2.437.63 2.862 1.838l-1.378.788c-.266-.84-.742-1.208-1.537-1.208-.605-.001-1.008.293-1.008.682zm10.961-1.996v1.523h-4.039v1.313h3.721v1.523h-3.721v1.471h4.144v1.523h-5.841V7.26h5.736v.001zm7.53 1.523h-2.545v5.832h-1.696V8.784h-2.544V7.261h6.785v1.523zM63.45 26.164v-6.472l-1.695 6.472H59.21l-1.697-6.472v6.472h-1.697v-7.355h3.075l1.59 6.157 1.59-6.157h3.074v7.355H63.45zm5.398-7.354h2.44l2.915 7.354h-1.856l-.572-1.524h-3.414l-.572 1.524h-1.855l2.914-7.355zm2.355 4.307l-1.135-3.004-1.134 3.004h2.269zm5.478 3.047h-1.697v-7.355h2.905l2.714 6.23v-6.23H82.3v7.355h-2.906l-2.714-6.23v6.23h.001zm9.323-7.354h2.44l2.915 7.354h-1.855l-.573-1.524h-3.413l-.573 1.524H83.09l2.914-7.355zm2.354 4.307l-1.135-3.004-1.134 3.004h2.269zm2.978-.631c-.043-2.101 1.79-3.814 3.922-3.781 2.004 0 3.212 1.04 3.605 2.564l-1.633.515c-.213-.967-.955-1.555-1.972-1.555-1.262 0-2.227.946-2.227 2.259 0 .683.191 1.239.583 1.649.392.41.922.61 1.59.61 1.039 0 1.622-.662 1.728-1.104h-2.799v-1.366h4.994v3.887h-1.484v-1.481c-.414.977-1.315 1.587-2.598 1.587-2.055.031-3.74-1.535-3.71-3.784zm14.758-3.677v1.523h-4.039v1.313h3.721v1.523h-3.721v1.47h4.145v1.524h-5.842v-7.354h5.736zm8.82 7.355v-6.472l-1.697 6.472h-2.545l-1.696-6.472v6.472h-1.695v-7.355h3.074l1.59 6.157 1.59-6.157h3.075v7.355h-1.696zm8.791-7.355v1.523h-4.039v1.313h3.72v1.523h-3.72v1.47h4.144v1.524h-5.841v-7.354h5.736zm2.886 7.355h-1.696v-7.355h2.905l2.715 6.23v-6.23h1.696v7.355h-2.904l-2.714-6.23v6.23h-.002zm13.316-5.832h-2.545v5.832h-1.697v-5.832h-2.544V18.81h6.785v1.523h.001zM61.552 30.357v1.523h-4.039v1.313h3.721v1.523h-3.72v1.47h4.144v1.524h-5.842v-7.355h5.736v.002zm2.883 7.355h-1.697v-7.355h2.905l2.714 6.23v-6.23h1.697v7.355H67.15l-2.715-6.23v6.23zm13.319-5.83h-2.545v5.831h-1.697v-5.831H70.97v-1.524h6.785v1.524zm6.646-1.525v1.523h-4.04v1.313h3.722v1.523H80.36v1.47h4.145v1.524h-5.842v-7.355H84.4v.002zm5.577 7.355c-.096-.2-.158-.41-.191-.631-.032-.22-.043-.577-.043-1.051 0-.726-.392-1.103-1.082-1.103h-1.378v2.785h-1.697v-7.355h3.71c1.56 0 2.492.914 2.492 2.154 0 .41-.138.799-.402 1.167-.265.367-.605.62-1.029.778.625.168 1.092.725 1.135 1.523.042.714.127 1.198.392 1.566v.168h-1.907v-.002zm-.732-4.307c.604 0 .9-.337.9-.788s-.296-.736-.9-.736h-1.961v1.524h1.961zm5.421 4.307h-1.697v-7.355h3.552c1.654 0 2.492 1.06 2.492 2.301 0 1.198-.86 2.322-2.492 2.322h-1.855v2.732zm1.748-4.255c.551 0 .9-.284.9-.788 0-.503-.349-.788-.9-.788h-1.75v1.576h1.75zm8.071 4.255a2.16 2.16 0 01-.191-.631c-.032-.22-.043-.577-.043-1.051 0-.726-.392-1.103-1.082-1.103h-1.378v2.785h-1.697v-7.355h3.71c1.559 0 2.492.914 2.492 2.154 0 .41-.138.799-.402 1.167-.266.367-.605.62-1.029.778.625.168 1.092.725 1.134 1.523.043.714.127 1.198.393 1.566v.168h-1.907v-.002zm-.732-4.307c.604 0 .901-.337.901-.788s-.297-.736-.901-.736h-1.961v1.524h1.961zm3.72-3.048h1.697v7.355h-1.697v-7.355zm4.845 1.997c0 .536.583.799 1.559.977 1.877.347 2.682.873 2.682 2.249 0 1.293-1.145 2.237-3.022 2.237-.773 0-1.463-.168-2.088-.503-.625-.337-1.092-.904-1.41-1.702l1.432-.892c.308 1.082 1.091 1.628 2.12 1.628.764 0 1.272-.263 1.272-.715 0-.504-.328-.756-1.643-.946-1.568-.22-2.597-.956-2.597-2.353 0-1.146 1.07-2.08 2.756-2.08 1.41 0 2.437.63 2.863 1.838l-1.379.788c-.265-.84-.742-1.208-1.537-1.208-.604-.001-1.008.293-1.008.682zm10.965-1.997v1.523h-4.039v1.313h3.721v1.523h-3.721v1.47h4.144v1.524h-5.841v-7.355h5.736v.002z" fill="#D7B273"/></svg>