<svg width="30" height="30" fill="none" xmlns="http://www.w3.org/2000/svg"><path d="M15.283 29.748c8.022 0 14.525-6.503 14.525-14.525S23.305.698 15.283.698.758 7.201.758 15.223 7.26 29.748 15.283 29.748z" fill="#fff"/><path fill-rule="evenodd" clip-rule="evenodd" d="M20.523 6.917c-.677.307-8.298 3.872-14.506 6.761-.491.246-.799.738-.799 1.23 0 .49.369.86.8.921.368.062 4.056.615 4.056.615l1.045 6.146.553-2.704-.8-4.057 7.5-5.532-6.147 6.761 2.151 2.459c.123.123 2.766 3.196 2.95 3.38.308.308.8.922 1.045.922.43 0 .86-.614 1.045-1.536.185-.86 1.414-6.823 2.95-14.751.185-.86-.614-1.23-1.843-.615z" fill="#000"/></svg>